<svg width="130" height="102" viewBox="0 0 130 102" fill="none" xmlns="http://www.w3.org/2000/svg">
<g id="Vector">
<path d="M130 64.8817C130 47.8066 123.152 31.4309 110.962 19.357C98.7721 7.28306 82.2391 0.500001 65 0.5C47.7609 0.499999 31.2279 7.28305 19.0381 19.357C6.8482 31.4309 2.60303e-06 47.8066 0 64.8817L65 64.8817H130Z" fill="#FFD43E"/>
<path d="M117 64.8817C117 51.2711 111.521 38.218 101.77 28.5939C92.0177 18.9697 78.7913 13.563 65 13.563C51.2087 13.563 37.9823 18.9697 28.2305 28.5939C18.4786 38.218 13 51.2711 13 64.8817L65 64.8817H117Z" fill="#EE8E1D"/>
<path d="M104 64.8817C104 54.7357 99.8911 45.0051 92.5772 37.8308C85.2632 30.6564 75.3434 26.6259 65 26.6259C54.6566 26.6259 44.7368 30.6564 37.4228 37.8308C30.1089 45.0051 26 54.7356 26 64.8817L65 64.8817H104Z" fill="#D62727"/>
<path d="M91 64.8817C91 58.2002 88.2607 51.7923 83.3848 47.0677C78.5088 42.3431 71.8956 39.6889 65 39.6889C58.1044 39.6889 51.4912 42.3431 46.6152 47.0677C41.7393 51.7923 39 58.2002 39 64.8817L65 64.8817H91Z" fill="#971C1C"/>
<path d="M8.92417 94.3154C9.0325 94.9467 9.24917 95.4584 9.57417 95.8503C9.92084 96.2204 10.3325 96.4925 10.8092 96.6667C11.3075 96.8191 11.8492 96.8953 12.4342 96.8953C13.4525 96.8953 14.2325 96.6885 14.7742 96.2748C15.3375 95.8394 15.6192 95.2842 15.6192 94.6093C15.6192 94.065 15.4458 93.6296 15.0992 93.303C14.7742 92.9764 14.3083 92.7043 13.7017 92.4865C13.1167 92.2471 12.4342 92.0076 11.6542 91.7681C10.7875 91.5286 9.91 91.2565 9.02167 90.9517C8.13334 90.6251 7.31 90.2223 6.55167 89.7433C5.79334 89.2426 5.18667 88.6003 4.73167 87.8166C4.27667 87.0328 4.06 86.053 4.08167 84.8774C4.08167 83.4405 4.45 82.2212 5.18667 81.2198C5.92334 80.2183 6.92 79.4671 8.17667 78.9664C9.43334 78.4439 10.8742 78.1826 12.4992 78.1826C13.9725 78.1826 15.2833 78.4003 16.4317 78.8358C17.58 79.2712 18.5225 79.9135 19.2592 80.7625C20.0175 81.5899 20.5483 82.624 20.8517 83.865L15.6517 84.7794C15.565 84.3004 15.37 83.9085 15.0667 83.6037C14.7633 83.2989 14.395 83.0812 13.9617 82.9506C13.55 82.7982 13.1383 82.722 12.7267 82.722C12.2067 82.722 11.73 82.8091 11.2967 82.9833C10.8633 83.1574 10.5058 83.4078 10.2242 83.7344C9.96417 84.0609 9.83417 84.4419 9.83417 84.8774C9.83417 85.3564 9.98584 85.7482 10.2892 86.053C10.6142 86.3578 11.0475 86.63 11.5892 86.8695C12.1308 87.109 12.7267 87.3376 13.3767 87.5553C14.265 87.8383 15.175 88.1431 16.1067 88.4697C17.0383 88.7963 17.905 89.2208 18.7067 89.7433C19.5083 90.2441 20.1475 90.8972 20.6242 91.7028C21.1225 92.4866 21.3717 93.4772 21.3717 94.6746C21.3717 95.9591 21.0575 97.113 20.4292 98.1363C19.8008 99.1595 18.8583 99.976 17.6017 100.586C16.345 101.195 14.7525 101.5 12.8242 101.5C11.1992 101.5 9.73667 101.271 8.43667 100.814C7.15834 100.335 6.1075 99.6385 5.28417 98.7241C4.46084 97.8097 3.91917 96.6885 3.65917 95.3604L8.92417 94.3154Z" fill="#1C1C1C"/>
<path d="M23.7873 89.7107H38.1848V94.4787H23.7873V89.7107Z" fill="#1C1C1C"/>
<path d="M40.4718 89.8413C40.4718 88.1431 40.7426 86.5864 41.2843 85.1713C41.8476 83.7344 42.6276 82.4934 43.6243 81.4483C44.6426 80.4033 45.8559 79.5978 47.2643 79.0317C48.6726 78.4656 50.2218 78.1826 51.9118 78.1826C54.4684 78.1826 56.6568 78.8249 58.4768 80.1094C60.2968 81.3722 61.5968 83.1139 62.3768 85.3346L57.4693 86.4123C57.0793 85.6067 56.6134 84.9536 56.0718 84.4528C55.5301 83.9303 54.9126 83.5493 54.2193 83.3098C53.5259 83.0703 52.7568 82.9506 51.9118 82.9506C50.6984 82.9506 49.6584 83.2554 48.7918 83.865C47.9251 84.4746 47.2643 85.3019 46.8093 86.347C46.3543 87.3702 46.1268 88.535 46.1268 89.8413C46.1268 91.1694 46.3543 92.3559 46.8093 93.401C47.2643 94.4242 47.9251 95.2407 48.7918 95.8503C49.6584 96.4381 50.6984 96.732 51.9118 96.732C52.7568 96.732 53.5476 96.6123 54.2843 96.3728C55.0209 96.1115 55.6818 95.6979 56.2668 95.1318C56.8518 94.544 57.3501 93.782 57.7618 92.8458L62.5393 93.8255C61.7593 96.2639 60.4484 98.1581 58.6068 99.5079C56.7651 100.836 54.5334 101.5 51.9118 101.5C50.2218 101.5 48.6726 101.217 47.2643 100.651C45.8559 100.085 44.6426 99.2902 43.6243 98.2669C42.6276 97.2219 41.8476 95.9918 41.2843 94.5766C40.7426 93.1397 40.4718 91.5613 40.4718 89.8413Z" fill="#1C1C1C"/>
<path d="M71.1571 78.4112V96.5034H81.0696V101.271H65.5021V78.4112H71.1571Z" fill="#1C1C1C"/>
<path d="M83.3367 78.4112H88.9917V92.5192C88.9917 93.3901 89.1651 94.1412 89.5117 94.7726C89.8584 95.3822 90.3459 95.8503 90.9742 96.1768C91.6026 96.4816 92.3392 96.634 93.1842 96.634C94.0509 96.634 94.8092 96.4816 95.4592 96.1768C96.1092 95.8503 96.6076 95.3822 96.9542 94.7726C97.3226 94.1412 97.5067 93.3901 97.5067 92.5192V78.4112H103.162V91.9967C103.162 93.586 102.891 94.9794 102.349 96.1768C101.808 97.3525 101.06 98.3431 100.107 99.1487C99.1751 99.9324 98.1026 100.52 96.8892 100.912C95.6759 101.304 94.4084 101.5 93.0867 101.5C91.3101 101.5 89.6851 101.152 88.2117 100.455C86.7384 99.7365 85.5576 98.6806 84.6692 97.2872C83.7809 95.872 83.3367 94.1085 83.3367 91.9967V78.4112Z" fill="#1C1C1C"/>
<path d="M119.992 85.3019C119.992 84.5399 119.754 83.9956 119.277 83.6691C118.801 83.3425 118.118 83.1792 117.23 83.1792H112.29V87.4247H117.165C118.053 87.4247 118.747 87.2614 119.245 86.9348C119.743 86.5865 119.992 86.0422 119.992 85.3019ZM106.635 101.271V78.4112H118.367C119.927 78.4112 121.249 78.6616 122.332 79.1623C123.437 79.6631 124.272 80.3707 124.835 81.2851C125.42 82.1777 125.712 83.2336 125.712 84.4528C125.712 85.4761 125.517 86.3361 125.127 87.0328C124.759 87.7077 124.228 88.2411 123.535 88.633C122.863 89.0249 122.083 89.2861 121.195 89.4168V89.678C122.278 89.8086 123.188 90.1026 123.925 90.5598C124.683 90.9952 125.257 91.5939 125.647 92.3559C126.037 93.0962 126.232 93.9779 126.232 95.0012C126.232 96.2639 125.94 97.3634 125.355 98.2996C124.792 99.2357 123.947 99.9651 122.82 100.488C121.715 101.01 120.35 101.271 118.725 101.271H106.635ZM112.29 96.5034H117.685C118.595 96.5034 119.299 96.3075 119.797 95.9156C120.296 95.5237 120.545 94.9467 120.545 94.1847C120.545 93.401 120.285 92.824 119.765 92.4539C119.245 92.062 118.53 91.8661 117.62 91.8661H112.29V96.5034Z" fill="#1C1C1C"/>
</g>
</svg>
