<svg width="64" height="62" viewBox="0 0 64 62" fill="none" xmlns="http://www.w3.org/2000/svg">
<path fill-rule="evenodd" clip-rule="evenodd" d="M31.0572 7.79946C24.6021 7.92579 18.2073 10.5941 13.704 15.2214C9.75705 19.2106 7.33015 24.6835 7.1917 30.295C6.99881 35.8025 9.00416 41.3189 12.6046 45.4927C16.937 50.6036 23.4651 53.7242 30.1561 54.0786C36.5731 54.4829 43.139 52.391 48.0313 48.2148C52.54 44.4355 55.5702 38.8988 56.0907 33.034C56.6273 27.6084 55.0301 22.029 51.7557 17.6658C47.8188 12.3299 41.5844 8.81726 35.0036 8.00336C33.6957 7.83709 32.3755 7.76926 31.0572 7.79946Z" fill="#F0EEEC"/>
<path d="M29.1173 9.03532C22.6821 9.16395 16.305 11.8129 11.8051 16.4167C7.83223 20.4084 5.39149 25.9012 5.25073 31.532C5.06422 36.9275 6.9821 42.3331 10.4477 46.4747C14.5684 51.47 20.7643 54.6403 27.2138 55.239C33.4098 55.8594 39.8332 54.1733 44.831 50.4517C49.5504 46.989 52.9574 41.728 53.9274 35.9496C54.8974 30.4551 53.6623 24.6252 50.5669 19.9774C46.9116 14.3845 40.8 10.5335 34.2145 9.41394C32.5334 9.11993 30.8234 8.9981 29.1173 9.03532Z" fill="white"/>
<path d="M31.604 10.5754C31.1664 10.5843 30.7335 10.6832 30.136 10.872C25.9777 12.1854 22.4918 14.0333 19.7778 16.3643C16.0037 19.6056 13.7519 23.8992 13.6526 28.4886L13.6503 28.5958L13.7397 30.4749C13.9047 33.9227 16.8168 36.7064 20.2831 36.7338L25.9304 36.7784C29.4283 36.806 33.3306 36.6641 36.8276 36.7283C40.9615 36.805 42.2727 38.4748 42.2268 40.0216C42.1808 41.5684 40.5462 42.9989 36.9498 43.1414C33.7918 43.2819 29.1186 43.325 26.0198 43.3134L9.89505 43.2529C8.18367 43.2466 6.79117 44.6227 6.78493 46.3265C6.77852 48.0303 8.16075 49.4167 9.87213 49.4229L25.9957 49.4834C29.3169 49.4957 34.5071 49.3421 37.7669 49.197C38.491 49.1647 39.1935 49.1361 39.8835 49.1103C43.0566 48.9915 45.6399 47.3057 47.2045 44.5875C49.1415 41.6523 48.7166 38.1289 47.0452 35.1243C46.3421 33.9718 44.0397 30.8858 39.118 30.7955L36.5374 30.7476C33.0187 30.683 29.4993 30.6374 25.9797 30.6095L20.3324 30.565C20.0659 30.5627 19.9428 30.4446 19.9302 30.1817L19.8534 28.5776C19.9249 25.8597 21.1363 23.3456 23.8264 21.0351C25.7147 19.4134 28.3754 17.964 31.7358 16.8663C39.2609 19.0787 42.6976 23.9419 42.8172 27.3808C42.8762 29.0837 44.3108 30.4164 46.0213 30.3574C47.7313 30.298 49.0692 28.8699 49.0099 27.1674C48.7654 20.1345 42.7544 13.5153 33.1006 10.8195C32.4846 10.6475 32.0416 10.5664 31.604 10.5754Z" fill="url(#paint0_linear_588_2779)"/>
<path d="M16.7157 29.7549C16.6439 29.7558 16.573 29.7707 16.507 29.7989C16.441 29.827 16.3812 29.8678 16.3311 29.919C16.2809 29.9702 16.2414 30.0307 16.2148 30.0971C16.1882 30.1635 16.175 30.2345 16.1759 30.306L16.1794 30.5535C16.2027 32.366 17.6645 33.8407 19.4843 33.8861L31.1845 34.1782C31.1857 34.1782 31.1868 34.1782 31.188 34.1782L38.9438 34.3208C41.0676 34.3597 43.0094 35.4567 44.1212 37.2415L44.3252 37.5678C45.211 38.9898 45.2204 40.7971 44.3435 42.2557L44.1464 42.5843C43.3096 43.9763 41.0908 45.2766 39.4732 45.3339C36.8312 45.4274 33.9887 45.5261 31.6315 45.5004C31.6284 45.5004 31.6254 45.5004 31.6223 45.5004L10.9298 45.5883C10.858 45.5885 10.787 45.6029 10.7208 45.6305C10.6545 45.6581 10.5944 45.6984 10.5439 45.7492C10.4933 45.7999 10.4533 45.8601 10.4261 45.9263C10.399 45.9924 10.3852 46.0633 10.3855 46.1348C10.3863 46.2789 10.4446 46.4169 10.5475 46.5183C10.6504 46.6197 10.7896 46.6763 10.9344 46.6755L31.6189 46.5877C34.0162 46.6138 36.8697 46.5147 39.5122 46.4211C41.6244 46.3464 43.9931 44.9578 45.0838 43.1433L45.2809 42.8136C46.3641 41.0116 46.356 38.7651 45.2534 36.995L45.0494 36.6676C43.7425 34.5696 41.4532 33.2792 38.9633 33.2335L31.2098 33.0909L19.5119 32.7988C18.2631 32.7676 17.2875 31.7839 17.2715 30.5399L17.2681 30.2923C17.2664 30.1481 17.2072 30.0105 17.1036 29.9097C17 29.809 16.8605 29.7533 16.7157 29.7549Z" fill="url(#paint1_linear_588_2779)"/>
<path d="M35.3614 17.6889C35.3167 17.691 35.2729 17.7019 35.2324 17.7209C35.1918 17.7399 35.1555 17.7666 35.1254 17.7996C35.1254 17.7996 33.913 19.1544 31.4709 19.1801C30.1905 19.1935 29.296 18.8675 28.7195 18.5457C28.143 18.2239 27.907 17.9285 27.907 17.9285C27.8788 17.8938 27.8439 17.8651 27.8045 17.8439C27.765 17.8226 27.7218 17.8094 27.6772 17.8048C27.6326 17.8002 27.5875 17.8045 27.5445 17.8173C27.5016 17.8301 27.4616 17.8512 27.4269 17.8794C27.3921 17.9077 27.3633 17.9424 27.3421 17.9817C27.3209 18.021 27.3077 18.0641 27.3032 18.1085C27.2987 18.1529 27.3031 18.1978 27.3161 18.2405C27.329 18.2832 27.3503 18.323 27.3787 18.3575C27.3787 18.3575 27.7168 18.7643 28.386 19.1379C29.0553 19.5114 30.0779 19.8736 31.479 19.8589C34.1786 19.8306 35.6307 18.2559 35.6307 18.2559C35.6609 18.2229 35.6842 18.1842 35.6994 18.1421C35.7145 18.1001 35.7211 18.0554 35.7189 18.0108C35.7167 17.9662 35.7056 17.9224 35.6864 17.8821C35.6671 17.8417 35.64 17.8055 35.6067 17.7756C35.5397 17.7156 35.4515 17.6844 35.3614 17.6889Z" fill="url(#paint2_linear_588_2779)"/>
<path d="M32.5596 16.6987C32.168 16.6644 31.7381 16.7123 31.3082 16.847C30.4484 17.1163 29.584 17.74 29.0243 18.7785C29.0176 18.7908 29.0135 18.8042 29.012 18.8181C29.0106 18.832 29.0119 18.8461 29.016 18.8594C29.02 18.8728 29.0267 18.8852 29.0356 18.896C29.0445 18.9068 29.0555 18.9157 29.0679 18.9223C29.0802 18.9289 29.0937 18.9331 29.1077 18.9345C29.1216 18.9359 29.1357 18.9346 29.1491 18.9305C29.1625 18.9265 29.175 18.9199 29.1859 18.911C29.1967 18.9022 29.2057 18.8912 29.2122 18.8789C29.7456 17.8891 30.5631 17.3025 31.3724 17.0489C32.1816 16.7954 32.979 16.8819 33.4614 17.2166C33.4845 17.2327 33.5131 17.2389 33.5408 17.234C33.5685 17.2291 33.5932 17.2134 33.6093 17.1904C33.6254 17.1674 33.6316 17.139 33.6267 17.1114C33.6218 17.0838 33.606 17.0593 33.5829 17.0432C33.3045 16.85 32.9511 16.7329 32.5596 16.6987Z" fill="url(#paint3_linear_588_2779)"/>
<path d="M32.609 17.0269C32.2961 17.0628 31.9831 17.1435 31.6785 17.2882C31.0693 17.5776 30.501 18.1203 30.0375 19.0372C30.025 19.0622 30.0229 19.0911 30.0317 19.1176C30.0405 19.1441 30.0595 19.166 30.0845 19.1786C30.1096 19.1911 30.1386 19.1932 30.1652 19.1844C30.1919 19.1756 30.2139 19.1568 30.2266 19.1319C30.6739 18.2469 31.2073 17.7473 31.7702 17.4798C32.3331 17.2124 32.9314 17.1761 33.5132 17.246C33.541 17.2493 33.569 17.2416 33.5911 17.2245C33.6132 17.2074 33.6276 17.1823 33.6312 17.1547C33.6331 17.1408 33.6321 17.1267 33.6284 17.1132C33.6247 17.0997 33.6183 17.0871 33.6097 17.0761C33.6011 17.065 33.5903 17.0558 33.5781 17.0489C33.5659 17.0421 33.5524 17.0377 33.5384 17.036C33.2347 16.9995 32.922 16.991 32.609 17.0269Z" fill="url(#paint4_linear_588_2779)"/>
<path d="M30.6494 16.752C30.252 16.7846 29.8944 16.8864 29.6158 17.0555C29.5918 17.0701 29.5746 17.0935 29.568 17.1207C29.5613 17.1478 29.5657 17.1765 29.5802 17.2004C29.5875 17.2124 29.597 17.2228 29.6084 17.2311C29.6197 17.2393 29.6325 17.2453 29.6462 17.2486C29.6598 17.2519 29.674 17.2524 29.6878 17.2502C29.7017 17.248 29.715 17.2431 29.7269 17.2358C30.2089 16.9433 31.0404 16.862 31.8676 17.0715C32.6947 17.2811 33.5136 17.7734 34.0002 18.5958C34.0072 18.6078 34.0166 18.6182 34.0278 18.6266C34.0389 18.635 34.0516 18.6411 34.0651 18.6446C34.0786 18.6481 34.0927 18.6489 34.1065 18.647C34.1204 18.6451 34.1337 18.6404 34.1457 18.6334C34.1578 18.6264 34.1683 18.617 34.1767 18.6059C34.1852 18.5948 34.1913 18.5822 34.1948 18.5687C34.1984 18.5553 34.1992 18.5413 34.1972 18.5275C34.1953 18.5137 34.1907 18.5005 34.1836 18.4885C33.6629 17.6086 32.7921 17.0881 31.9203 16.8673C31.4844 16.7568 31.0468 16.7195 30.6494 16.752Z" fill="url(#paint5_linear_588_2779)"/>
<path d="M29.8736 17.0248C29.8597 17.026 29.8461 17.03 29.8337 17.0365C29.8213 17.0429 29.8103 17.0518 29.8014 17.0625C29.7925 17.0732 29.7857 17.0855 29.7816 17.0988C29.7775 17.1122 29.776 17.1261 29.7773 17.14C29.7786 17.1539 29.7826 17.1674 29.7891 17.1797C29.7956 17.192 29.8044 17.203 29.8152 17.2119C29.8259 17.2208 29.8384 17.2275 29.8517 17.2316C29.8651 17.2357 29.8791 17.2371 29.8931 17.2358C30.9286 17.1415 32.265 17.5405 33.1671 19.051C33.1741 19.063 33.1835 19.0735 33.1946 19.0819C33.2058 19.0903 33.2185 19.0964 33.232 19.0999C33.2455 19.1034 33.2596 19.1042 33.2734 19.1023C33.2872 19.1004 33.3006 19.0957 33.3126 19.0887C33.3246 19.0817 33.3352 19.0723 33.3436 19.0612C33.352 19.0501 33.3582 19.0375 33.3617 19.024C33.3652 19.0106 33.366 18.9966 33.3641 18.9828C33.3622 18.969 33.3575 18.9558 33.3504 18.9438C32.4094 17.3679 30.9808 16.9239 29.8736 17.0248Z" fill="url(#paint6_linear_588_2779)"/>
<path d="M31.6486 0.744141C14.3288 0.74414 0.0466303 14.2371 0.0466309 30.9893C0.0466332 47.7415 14.3288 61.2345 31.6486 61.2345C48.9684 61.2345 63.2494 47.7415 63.2494 30.9893C63.2494 14.2371 48.9684 0.744142 31.6486 0.744141ZM31.6486 8.21473C45.0916 8.21473 55.7469 18.4595 55.7469 30.9893C55.7469 43.5192 45.0916 53.7639 31.6486 53.7639C18.2056 53.7639 7.54919 43.5192 7.54919 30.9893C7.54919 18.4595 18.2056 8.21473 31.6486 8.21473Z" fill="url(#paint7_linear_588_2779)"/>
<path d="M18.1402 22.0005C17.9831 21.9691 17.8198 22.0011 17.6864 22.0895C17.553 22.1779 17.4602 22.3153 17.4285 22.4717C17.4128 22.5493 17.4125 22.6291 17.4277 22.7068C17.443 22.7844 17.4735 22.8583 17.5174 22.9242C17.5614 22.9901 17.618 23.0468 17.6839 23.0909C17.7499 23.135 17.8239 23.1658 17.9018 23.1814C17.9018 23.1814 26.0803 24.8346 32.0864 24.6942C38.0427 24.5549 46.7615 23.2407 46.7615 23.2407C46.92 23.2169 47.0625 23.1314 47.1577 23.003C47.2528 22.8747 47.293 22.7139 47.2692 22.5562C47.2573 22.4779 47.2301 22.4028 47.1891 22.335C47.148 22.2673 47.094 22.2082 47.03 22.1613C46.9661 22.1144 46.8934 22.0804 46.8163 22.0615C46.7392 22.0425 46.659 22.0388 46.5805 22.0507C46.5805 22.0507 37.8618 23.3548 32.0578 23.4905C26.3036 23.6251 18.1402 22.0005 18.1402 22.0005Z" fill="url(#paint8_linear_588_2779)"/>
<path d="M31.2039 27.9098C30.5956 27.9127 30.2173 28.5498 30.3238 29.1078C30.3702 29.7179 30.2248 30.3591 30.4086 30.9492C30.6532 31.5347 31.3541 31.5047 31.8814 31.4763C32.5147 31.5644 33.0344 30.9412 32.9205 30.3344C32.8736 29.7041 33.0207 29.0427 32.8346 28.4323C32.5429 27.7683 31.7825 27.9171 31.2039 27.9098Z" fill="#E9BC1B"/>
<defs>
<linearGradient id="paint0_linear_588_2779" x1="16.75" y1="35.7998" x2="46.2211" y2="35.7998" gradientUnits="userSpaceOnUse">
<stop stop-color="#E9BC1B"/>
</linearGradient>
<linearGradient id="paint1_linear_588_2779" x1="16.7299" y1="35.6988" x2="46.201" y2="35.6988" gradientUnits="userSpaceOnUse">
<stop stop-color="white"/>
</linearGradient>
<linearGradient id="paint2_linear_588_2779" x1="26.7331" y1="18.7774" x2="36.1664" y2="18.7774" gradientUnits="userSpaceOnUse">
<stop stop-color="#E9BC1B"/>
</linearGradient>
<linearGradient id="paint3_linear_588_2779" x1="29.414" y1="17.9949" x2="33.3556" y2="17.9949" gradientUnits="userSpaceOnUse">
<stop stop-color="#E9BC1B"/>
</linearGradient>
<linearGradient id="paint4_linear_588_2779" x1="30.2912" y1="18.1922" x2="34.2328" y2="18.1922" gradientUnits="userSpaceOnUse">
<stop stop-color="#E9BC1B"/>
</linearGradient>
<linearGradient id="paint5_linear_588_2779" x1="33.8465" y1="17.8487" x2="29.9049" y2="17.8487" gradientUnits="userSpaceOnUse">
<stop stop-color="#E9BC1B"/>
</linearGradient>
<linearGradient id="paint6_linear_588_2779" x1="33.1752" y1="18.1079" x2="29.2336" y2="18.1079" gradientUnits="userSpaceOnUse">
<stop stop-color="#E9BC1B"/>
</linearGradient>
<linearGradient id="paint7_linear_588_2779" x1="3.79754" y1="30.9893" x2="59.4985" y2="30.9893" gradientUnits="userSpaceOnUse">
<stop stop-color="#E9BC1B"/>
</linearGradient>
<linearGradient id="paint8_linear_588_2779" x1="18.0211" y1="22.6181" x2="46.6711" y2="22.6181" gradientUnits="userSpaceOnUse">
<stop stop-color="#E9BC1B"/>
</linearGradient>
</defs>
</svg>
