<svg width="62" height="48" viewBox="0 0 62 48" fill="none" xmlns="http://www.w3.org/2000/svg">
<path d="M62 30.5973C62 22.4824 58.7339 14.6998 52.9203 8.96173C47.1067 3.22363 39.2217 6.12658e-07 31 0C22.7783 -6.12658e-07 14.8933 3.22363 9.07969 8.96173C3.26606 14.6998 1.24144e-06 22.4824 0 30.5973L31 30.5973H62Z" fill="#F4A900"/>
<path d="M55.8 30.5973C55.8 24.1289 53.1872 17.9254 48.5363 13.3515C43.8853 8.7777 37.5774 6.20814 31 6.20814C24.4226 6.20814 18.1147 8.7777 13.4638 13.3515C8.81285 17.9254 6.2 24.1289 6.2 30.5973L31 30.5973H55.8Z" fill="#EE8E1D"/>
<path d="M49.6 30.5973C49.6 25.7754 47.6404 21.151 44.1522 17.7414C40.664 14.3318 35.933 12.4163 31 12.4163C26.067 12.4163 21.336 14.3318 17.8478 17.7414C14.3596 21.151 12.4 25.7754 12.4 30.5973L31 30.5973H49.6Z" fill="#D62727"/>
<path d="M43.4 30.5973C43.4 27.4219 42.0936 24.3765 39.7681 22.1312C37.4427 19.8858 34.2887 18.6244 31 18.6244C27.7113 18.6244 24.5573 19.8858 22.2319 22.1312C19.9064 24.3765 18.6 27.4219 18.6 30.5973L31 30.5973H43.4Z" fill="#971C1C"/>
<path d="M4.25614 44.5855C4.30781 44.8856 4.41114 45.1287 4.56614 45.315C4.73148 45.4909 4.92781 45.6202 5.15514 45.703C5.39281 45.7754 5.65114 45.8116 5.93014 45.8116C6.41581 45.8116 6.78781 45.7133 7.04614 45.5167C7.31481 45.3098 7.44914 45.046 7.44914 44.7252C7.44914 44.4665 7.36648 44.2596 7.20114 44.1044C7.04614 43.9492 6.82398 43.8199 6.53464 43.7164C6.25564 43.6026 5.93014 43.4888 5.55814 43.3749C5.14481 43.2611 4.72631 43.1318 4.30264 42.9869C3.87898 42.8317 3.48631 42.6403 3.12464 42.4127C2.76298 42.1747 2.47364 41.8695 2.25664 41.497C2.03964 41.1245 1.93631 40.6589 1.94664 40.1001C1.94664 39.4172 2.12231 38.8378 2.47364 38.3619C2.82498 37.8859 3.30031 37.5289 3.89964 37.291C4.49898 37.0426 5.18614 36.9185 5.96114 36.9185C6.66381 36.9185 7.28898 37.0219 7.83664 37.2289C8.38431 37.4358 8.83381 37.741 9.18514 38.1446C9.54681 38.5378 9.79998 39.0292 9.94464 39.619L7.46464 40.0536C7.42331 39.8259 7.33031 39.6397 7.18564 39.4949C7.04098 39.35 6.86531 39.2465 6.65864 39.1844C6.46231 39.112 6.26598 39.0758 6.06964 39.0758C5.82164 39.0758 5.59431 39.1172 5.38764 39.2C5.18098 39.2827 5.01048 39.4017 4.87614 39.5569C4.75214 39.7121 4.69014 39.8932 4.69014 40.1001C4.69014 40.3278 4.76248 40.514 4.90714 40.6589C5.06214 40.8037 5.26881 40.9331 5.52714 41.0469C5.78548 41.1607 6.06964 41.2693 6.37964 41.3728C6.80331 41.5073 7.23731 41.6522 7.68164 41.8074C8.12598 41.9626 8.53931 42.1643 8.92164 42.4127C9.30398 42.6507 9.60881 42.9611 9.83614 43.3439C10.0738 43.7164 10.1926 44.1872 10.1926 44.7562C10.1926 45.3667 10.0428 45.9151 9.74314 46.4014C9.44348 46.8877 8.99398 47.2757 8.39464 47.5654C7.79531 47.8551 7.03581 48 6.11614 48C5.34114 48 4.64364 47.8914 4.02364 47.6741C3.41398 47.4464 2.91281 47.1153 2.52014 46.6808C2.12748 46.2462 1.86914 45.7133 1.74514 45.0822L4.25614 44.5855Z" fill="#1C1C1C"/>
<path d="M11.3447 42.3972H18.2112V44.6631H11.3447V42.3972Z" fill="#1C1C1C"/>
<path d="M19.3019 42.4592C19.3019 41.6522 19.4311 40.9124 19.6894 40.2398C19.9581 39.5569 20.3301 38.9672 20.8054 38.4705C21.2911 37.9739 21.8698 37.591 22.5414 37.322C23.2131 37.053 23.9519 36.9185 24.7579 36.9185C25.9773 36.9185 27.0209 37.2237 27.8889 37.8342C28.7569 38.4343 29.3769 39.262 29.7489 40.3174L27.4084 40.8296C27.2224 40.4468 27.0003 40.1364 26.7419 39.8984C26.4836 39.6501 26.1891 39.469 25.8584 39.3552C25.5278 39.2413 25.1609 39.1844 24.7579 39.1844C24.1793 39.1844 23.6833 39.3293 23.2699 39.619C22.8566 39.9087 22.5414 40.3019 22.3244 40.7986C22.1074 41.2849 21.9989 41.8384 21.9989 42.4592C21.9989 43.0904 22.1074 43.6543 22.3244 44.151C22.5414 44.6373 22.8566 45.0253 23.2699 45.315C23.6833 45.5943 24.1793 45.734 24.7579 45.734C25.1609 45.734 25.5381 45.6771 25.8894 45.5633C26.2408 45.4391 26.5559 45.2425 26.8349 44.9735C27.1139 44.6942 27.3516 44.332 27.5479 43.8871L29.8264 44.3527C29.4544 45.5116 28.8293 46.4118 27.9509 47.0533C27.0726 47.6844 26.0083 48 24.7579 48C23.9519 48 23.2131 47.8655 22.5414 47.5965C21.8698 47.3274 21.2911 46.9498 20.8054 46.4635C20.3301 45.9668 19.9581 45.3822 19.6894 44.7097C19.4311 44.0268 19.3019 43.2766 19.3019 42.4592Z" fill="#1C1C1C"/>
<path d="M33.9365 37.0271V45.6254H38.664V47.8914H31.2395V37.0271H33.9365Z" fill="#1C1C1C"/>
<path d="M39.7452 37.0271H42.4422V43.7319C42.4422 44.1458 42.5249 44.5027 42.6902 44.8028C42.8555 45.0925 43.088 45.315 43.3877 45.4702C43.6874 45.615 44.0387 45.6875 44.4417 45.6875C44.855 45.6875 45.2167 45.615 45.5267 45.4702C45.8367 45.315 46.0744 45.0925 46.2397 44.8028C46.4154 44.5027 46.5032 44.1458 46.5032 43.7319V37.0271H49.2002V43.4836C49.2002 44.2389 49.071 44.9011 48.8127 45.4702C48.5544 46.0289 48.1979 46.4997 47.7432 46.8825C47.2989 47.255 46.7874 47.5344 46.2087 47.7206C45.63 47.9069 45.0255 48 44.3952 48C43.5479 48 42.7729 47.8344 42.0702 47.5033C41.3675 47.1619 40.8044 46.6601 40.3807 45.9979C39.957 45.3253 39.7452 44.4872 39.7452 43.4836V37.0271Z" fill="#1C1C1C"/>
<path d="M57.2271 40.3019C57.2271 39.9398 57.1135 39.6811 56.8862 39.5259C56.6588 39.3707 56.3333 39.2931 55.9096 39.2931H53.5536V41.3107H55.8787C56.3023 41.3107 56.633 41.2331 56.8707 41.0779C57.1083 40.9124 57.2271 40.6537 57.2271 40.3019ZM50.8567 47.8914V37.0271H56.4521C57.1961 37.0271 57.8265 37.1461 58.3432 37.3841C58.8702 37.6221 59.268 37.9583 59.5366 38.3929C59.8156 38.8171 59.9552 39.319 59.9552 39.8984C59.9552 40.3847 59.8621 40.7934 59.6761 41.1245C59.5005 41.4452 59.2473 41.6987 58.9167 41.885C58.5963 42.0712 58.2243 42.1954 57.8006 42.2575V42.3816C58.3173 42.4437 58.7513 42.5834 59.1026 42.8007C59.4643 43.0076 59.7382 43.2922 59.9242 43.6543C60.1102 44.0061 60.2032 44.4251 60.2032 44.9114C60.2032 45.5116 60.0637 46.0341 59.7847 46.479C59.516 46.9239 59.113 47.2705 58.5756 47.5189C58.0486 47.7672 57.3977 47.8914 56.6227 47.8914H50.8567ZM53.5536 45.6254H56.1266C56.5606 45.6254 56.8965 45.5323 57.1342 45.346C57.3718 45.1598 57.4907 44.8856 57.4907 44.5234C57.4907 44.1509 57.3667 43.8768 57.1187 43.7009C56.8707 43.5146 56.5297 43.4215 56.0956 43.4215H53.5536V45.6254Z" fill="#1C1C1C"/>
</svg>
