<svg width="589" height="622" viewBox="0 0 589 622" fill="none" xmlns="http://www.w3.org/2000/svg">
<path fill-rule="evenodd" clip-rule="evenodd" d="M230.621 2.46918C213.939 7.94998 202.699 16.4893 193.065 31.0038C187.348 39.617 185.233 41.3916 180.68 41.3916C170.772 41.3916 158.069 48.7018 133.901 68.3069C105.314 91.499 75.3246 124.134 57.6918 151.239C48.0998 165.98 29.1906 204.53 23.7858 220.36C11.4101 256.603 7.48242 280.78 7.48242 320.734C7.48242 353.396 8.91978 366.802 14.9969 390.807C38.5761 483.94 110.592 568.804 194.895 602.8C202.186 605.741 210.922 608.887 214.306 609.792C217.69 610.7 223.657 612.3 227.562 613.351C258.372 621.644 320.347 624.71 347.343 619.277C404.972 607.677 428.443 597.562 479.8 562.2C488.121 556.471 494.958 550.504 494.992 548.939C495.028 547.375 491.093 543.992 486.248 541.423C468.6 532.059 435.026 507.028 419.808 491.889C394.121 466.333 374.024 432.182 366.453 401.223C358.033 366.802 362.468 338.476 378.115 326.721C390.867 317.14 404.095 318.467 421.317 331.058C464.72 362.787 506.949 364.281 543.512 335.378C558.276 323.708 566.576 310.013 571.89 288.558C574.445 278.248 579.179 265.404 582.626 259.44C588.085 249.99 588.792 247.143 588.794 234.564C588.799 213.679 583.313 203.425 554.854 171.12C547.512 162.787 541.024 155.543 540.433 155.022C534.865 150.11 528.112 137.59 525.345 127.052C523.489 119.983 520.664 111.072 519.067 107.25C510.1 85.7872 485.235 59.9172 458.592 44.3327C450.004 39.3083 441.084 34.0321 438.77 32.6041C436.456 31.178 431.094 25.3166 426.854 19.5782C422.616 13.8399 415.689 6.96139 411.464 4.29295C404.589 -0.0477467 402.349 -0.466289 390.236 0.323446C382.79 0.810165 371.583 2.36123 365.333 3.77215C350.687 7.07881 308.886 7.09964 290.53 3.80813C269.522 0.0431569 240.016 -0.61779 230.621 2.46918ZM242.843 36.8085C232.022 40.1378 221.947 51.0956 218.55 63.2314C214.783 76.6853 219.097 90.1695 232.2 105.904C236.158 110.659 239.398 115.445 239.398 116.541C239.398 118.875 227.093 127.35 220.817 129.342C215.554 131.012 208.753 127.101 200.093 117.424C193.151 109.667 186.373 96.4117 186.373 90.5938C186.373 85.0069 181.699 84.0391 174.183 88.0693C164.129 93.461 131.05 121.63 116.578 137.129C102.996 151.672 83.2443 179.372 77.8224 191.479C76.0726 195.386 73.4157 201.352 71.9177 204.736C68.3612 212.774 63.2784 230.526 63.2784 234.909C63.2784 237.566 59.4928 231 64.4961 231C69.2097 231 40.7597 242.763 44.9961 247C49.9407 251.945 51.9961 249.5 49.1925 228C49.1925 239.979 79.1336 181.398 73.9961 218.5C65.9987 222.295 71.6928 230 58.4961 256C45.8518 280.912 49.06 279.14 49.1925 321.306C49.3062 357.81 49.7986 362.185 57.3528 393.897C59.5817 403.251 59.9359 403.67 70.0296 408.861C81.646 414.836 85.6702 422.637 82.536 433.098C79.3204 443.833 79.8014 451.298 83.9526 455.055C86.7989 457.631 88.4067 457.898 91.4026 456.296C101.152 451.078 116.025 455.921 121.245 466.011C123.939 471.225 124.055 473.704 122.108 484.601C120.871 491.518 120.434 499.466 121.137 502.263C124.324 514.962 185.746 556.06 221.408 569.359C233.247 573.773 236.323 573.082 241.396 564.87C248.994 552.579 263.832 549.155 275.482 557.005C278.974 559.359 284.254 565.933 287.237 571.641C293.444 583.525 295.029 584.867 302.839 584.867C310.524 584.867 312.075 583.546 316.668 573.09C320.425 564.531 320.982 564.094 328.138 564.094C334.456 564.094 336.812 565.308 342.839 571.669C347.538 576.629 351.681 579.248 354.834 579.254C367.131 579.279 422.949 557.088 424.536 551.545C424.872 550.373 419.357 544.947 412.284 539.487C405.209 534.027 391.67 521.721 382.197 512.14C346.784 476.323 324.608 433.007 319.152 388.998L317.989 379.614L308.062 376.688C295.804 373.075 291.695 367.751 291.695 355.483C291.695 343.012 295.832 338.726 307.867 338.726C319.313 338.726 325.135 333.874 324.256 325.067C323.705 319.554 322.779 318.91 308.521 314.146C282.974 305.608 267.799 296.012 250.276 277.316C220.705 245.764 208.367 189.917 222.726 152.606C225.731 144.794 233.823 139.872 243.657 139.872C255.931 139.872 258.921 143.843 256.452 156.861C246.329 210.247 273.965 260.214 323.714 278.475C337.067 283.374 375.543 285.435 393.102 282.189C407.972 279.439 415.823 282.083 431.015 294.953C456.496 316.541 481.188 324.113 503.003 317.028C516.189 312.746 524.273 306.405 532.053 294.241C538.499 284.164 543.103 264.866 539.062 264.866C535.926 264.866 517.863 247.789 514.861 241.988C511.509 235.503 511.303 228.544 514.373 225.474C515.797 224.049 522.874 223.201 533.31 223.201C549.701 223.201 552.598 222.053 547.303 217.66C545.834 216.44 539.885 208.452 534.087 199.909C528.288 191.367 518.817 179.264 513.045 173.014C499.526 158.382 494.267 149.199 491.346 135.137C486.479 111.704 476.024 97.2298 452.447 81.2836C419.569 59.0479 397.376 50.2529 358.87 44.1964C336.278 40.6416 328.112 40.6927 315.149 44.4729C296.09 50.0294 291.683 49.9347 282.62 43.7721C267.632 33.5794 258.518 31.9848 242.843 36.8085ZM323.779 53.177C322.158 55.4913 320.83 58.7108 320.83 60.3301C320.83 71.5151 336.219 75.8558 343.417 66.7029C348.324 60.4645 348.352 57.5518 343.555 52.7547C338.249 47.4481 327.632 47.6735 323.779 53.177ZM245.028 55.9818C242.453 57.7563 239.307 60.527 238.039 62.1368C234.296 66.8847 235.147 81.312 239.605 88.7378C244.029 96.1086 250.744 103.889 252.681 103.889C253.374 103.889 255.075 100.455 256.461 96.2583C259.287 87.6943 272.469 74.39 280.002 72.498C286.858 70.7784 286.042 67.3278 276.933 59.5309C270.098 53.6808 267.699 52.7547 259.364 52.7547C253.363 52.7547 247.937 53.9762 245.028 55.9818ZM388.532 58.5877C383.837 61.3224 384.3 70.6913 389.363 75.407C397.503 82.9918 409.837 78.2743 409.837 67.5759C409.837 58.4911 397.579 53.319 388.532 58.5877ZM353.354 79.8632C348.305 85.2398 347.981 94.5898 352.7 98.8604C357.38 103.097 368.653 102.909 372.615 98.5309C374.338 96.6257 375.749 92.0369 375.749 88.3325C375.749 76.5357 361.533 71.1591 353.354 79.8632ZM297.995 85.844C295.331 87.2928 292.109 90.7604 290.839 93.5501C288.892 97.8226 289.075 99.5554 291.998 104.559C296.652 112.532 304.182 115.125 310.964 111.091C322.601 104.167 323.226 90.3362 312.113 85.6925C304.496 82.5108 304.112 82.5146 297.995 85.844ZM410.259 91.6865C404.953 95.4022 404.536 105.72 409.513 110.224C414.469 114.71 424.05 114.204 428.701 109.212C436.677 100.652 431.21 88.7378 419.306 88.7378C416.645 88.7378 412.573 90.0654 410.259 91.6865ZM454.465 106.404C446.4 112.301 454.153 128.509 465.038 128.509C471.723 128.509 477.403 119.295 474.295 113.488C469.267 104.093 461.446 101.3 454.465 106.404ZM330.373 123.185C322.68 131.44 327.704 143.659 338.791 143.659C350.577 143.659 357.719 128.223 348.814 121.988C342.847 117.806 334.903 118.322 330.373 123.185ZM273.018 134.929C264.932 141.067 267.905 156.827 277.857 160.577C286.172 163.711 296.211 155.043 296.211 144.731C296.211 134.516 281.663 128.367 273.018 134.929ZM390.1 134.035C383.211 134.713 378.561 136.116 378.048 137.677C377.007 140.843 397.158 160.645 409.184 168.272C415.018 171.972 420.62 173.961 425.212 173.961C435.289 173.961 441.743 180.233 455.327 203.232C466.845 222.733 471.379 226.796 478.552 224.042C484.906 221.605 485.856 214.097 481.618 199.84C471.267 165.031 450.441 140.326 426.515 134.47C417.351 132.228 409.449 132.133 390.1 134.035ZM315.745 162.569C302.735 167.94 307.002 189.112 321.095 189.112C331.096 189.112 337.81 174.283 331.541 166.037C328.46 161.984 321.088 160.365 315.745 162.569ZM362.493 170.673C358.794 172.571 357.633 174.808 357.187 180.892C356.706 187.453 357.418 189.314 361.703 192.685C368.112 197.727 373.871 197.772 379.179 192.826C384.288 188.064 384.733 177.711 380.01 173.455C375.138 169.064 367.877 167.91 362.493 170.673ZM273.013 185.476C269.155 187.722 268.477 198.496 271.971 201.99C277.645 207.664 289.11 202.058 289.11 193.612C289.11 185.328 280.627 181.04 273.013 185.476ZM410.831 196.146C402.364 198.373 399.154 212.226 405.726 218.173C410.32 222.332 421.682 222.228 425.47 217.993C435.052 207.276 425.082 192.396 410.831 196.146ZM292.467 214.097C287.693 221.928 287.702 223.398 292.562 229.574C295.359 233.131 298.213 234.547 302.504 234.504C309.68 234.432 313.393 231.759 316.707 224.281C320.326 216.11 314.85 209.213 304.108 208.416C297.02 207.891 295.927 208.423 292.467 214.097ZM353.068 219.315C349.46 222.087 348.375 224.667 348.375 230.485C348.375 240.562 353.28 245.927 362.493 245.927C370.598 245.927 375.138 241.882 376.895 233.095C377.887 228.131 377.13 226.184 372.329 221.383C365.731 214.785 359.792 214.148 353.068 219.315ZM413.151 244.071C407.845 247.346 408.748 259.394 414.721 265.01C419.52 269.519 420.304 269.612 459.397 270.242C498.552 270.873 499.262 270.814 503.751 266.597C506.362 264.144 508.313 260.148 508.313 257.254C508.313 247.921 504.224 246.514 473.278 245.196C457.654 244.53 438.48 243.543 430.668 243.005C422.05 242.41 415.162 242.829 413.151 244.071ZM318.463 249.866C314.102 252.406 314.189 261.516 318.612 265.519C326.206 272.394 337.874 267.072 337.874 256.734C337.874 248.978 326.746 245.041 318.463 249.866ZM466.267 277.981C453.888 278.589 443.169 280.009 441.984 281.196C440.817 282.365 440.137 286.2 440.472 289.719C441.457 300.019 449.206 302.737 477.624 302.739C499.825 302.743 501.126 302.527 505.557 298.093C510.305 293.345 511.113 290.264 509.03 284.836C507.489 280.821 498.298 276.14 492.784 276.56C490.388 276.744 478.456 277.382 466.267 277.981ZM243.224 333.506C232.399 339.16 230.831 357.202 240.304 367.09C252.66 379.987 269.509 372.357 269.638 353.805C269.746 338.438 255.192 327.255 243.224 333.506ZM286.326 410.512C281.089 415.192 280.201 417.228 280.381 424.135C280.559 430.905 281.731 433.297 287.428 438.518C296.2 446.558 305.46 447.065 312.624 439.903C316.863 435.664 317.372 433.871 316.512 426.237C315.724 419.249 314.134 416.179 308.735 411.23C300.328 403.526 294.359 403.334 286.326 410.512Z" fill="#F4A900"/>
<path d="M71.9961 340.105C72.0056 333.329 78.3743 322.882 83.8359 320.687C89.9604 318.225 92.4412 318.38 99.361 321.664C108.135 325.829 110.947 332.098 110.163 345.754C109.71 353.653 98.6281 364.821 91.2405 364.821C81.2812 364.821 71.9791 352.873 71.9961 340.105Z" fill="#F4A900"/>
<path d="M113.996 292.105C114.006 285.329 120.374 274.882 125.836 272.687C131.96 270.225 134.441 270.38 141.361 273.664C150.135 277.829 152.947 284.098 152.163 297.754C151.71 305.653 140.628 316.821 133.241 316.821C123.281 316.821 113.979 304.873 113.996 292.105Z" fill="#F4A900"/>
<path d="M158.996 254.105C159.006 247.329 165.374 236.882 170.836 234.687C176.96 232.225 179.441 232.38 186.361 235.664C195.135 239.829 197.947 246.098 197.163 259.754C196.71 267.653 185.628 278.821 178.241 278.821C168.281 278.821 158.979 266.873 158.996 254.105Z" fill="#F4A900"/>
<path d="M265.938 474.329C270.252 468.932 272.243 467.948 279.263 467.745C290.031 467.434 294.472 471.428 295.934 482.736C296.873 490 296.11 493.372 292.209 499.223C287.946 505.614 286.4 506.657 280.428 507.166C270.334 508.026 263.581 501.669 262.055 489.869C261.065 482.205 261.71 479.621 265.938 474.329Z" fill="#F4A900"/>
<path d="M348.416 525.426C352.73 520.029 354.721 519.045 361.741 518.841C372.51 518.531 376.95 522.524 378.412 533.833C379.351 541.097 378.589 544.469 374.687 550.32C370.424 556.711 368.879 557.754 362.906 558.263C352.813 559.122 346.059 552.766 344.534 540.965C343.543 533.302 344.189 530.717 348.416 525.426Z" fill="#F4A900"/>
<path d="M285.416 533.426C289.73 528.029 291.721 527.045 298.741 526.841C309.51 526.531 313.95 530.524 315.412 541.833C316.351 549.097 315.589 552.469 311.687 558.32C307.424 564.711 305.879 565.754 299.906 566.263C289.813 567.122 283.059 560.766 281.534 548.965C280.543 541.302 281.189 538.717 285.416 533.426Z" fill="#F4A900"/>
<path d="M265.938 474.329C270.252 468.932 272.243 467.948 279.263 467.745C290.031 467.434 294.472 471.428 295.934 482.736C296.873 490 296.11 493.372 292.209 499.223C287.946 505.614 286.4 506.657 280.428 507.166C270.334 508.026 263.581 501.669 262.055 489.869C261.065 482.205 261.71 479.621 265.938 474.329Z" fill="#F4A900"/>
<path d="M169.418 325.426C173.732 320.029 175.723 319.045 182.743 318.841C193.512 318.531 197.952 322.524 199.414 333.833C200.353 341.097 199.591 344.469 195.689 350.32C191.426 356.711 189.881 357.754 183.908 358.263C173.814 359.122 167.061 352.766 165.536 340.965C164.545 333.302 165.191 330.717 169.418 325.426Z" fill="#F4A900"/>
<path fill-rule="evenodd" clip-rule="evenodd" d="M14.4965 379C38.3757 396.161 43.8916 410.245 52.4571 433.299C59.8851 453.294 69.4742 462.549 90.6304 470.144C106.031 475.671 107.474 519.091 119.996 521.5C132.09 523.825 139.469 539.495 140.996 549.607C143.166 563.975 144.784 532.979 150.496 542.5C157.099 553.508 164.201 554.799 178.472 560.426C205.297 571.002 214.283 578.126 232.989 603.641L235.739 607.392L236.644 600.154C237.666 591.984 235.679 580.298 232.065 573.209C228.775 566.757 218.987 558.185 210.483 554.309C204.14 551.419 203.529 550.831 205.598 549.607C223.338 539.102 233.353 522.915 233.632 504.298C233.872 488.211 224.866 475.067 210.732 470.879C202.613 468.473 196.319 468.514 189.29 471.018C174.185 476.397 167.735 492.896 175.917 505.218C179.163 510.106 185.964 515.399 189.004 515.402C189.939 515.403 190.196 512.04 189.785 505.201C189.205 495.571 189.356 494.814 192.478 491.67C196.319 487.803 200.697 487.433 207.058 490.438C214.84 494.116 218.736 503.128 216.395 512.05C214.514 519.229 203.418 530.122 196.889 531.2C181.343 533.766 163.105 520.468 157.833 502.728C152.914 486.173 161.559 469.607 179.827 460.579C187.03 457.019 188.389 456.801 203.539 456.765C220.025 456.725 220.303 456.787 233.448 463.496C235.96 464.779 234.059 454.762 230.855 449.837C226.609 443.312 219.328 439.459 209.338 438.45C205.416 438.055 202.206 437.232 202.205 436.622C202.203 436.013 202.691 435.513 203.287 435.512C205.197 435.507 217.171 423.229 220.598 417.762C225.338 410.198 229.111 397.965 229.093 390.223L229.076 383.557L219.824 384.441C205.95 385.767 194.323 391.858 183.773 403.33L175.454 412.374L174.902 404.96C174.597 400.883 173.083 394.945 171.537 391.764C168.188 384.875 159.876 378.941 153.596 378.956C151.262 378.962 149.353 379.183 149.354 379.448C149.355 379.714 150.75 382.463 152.454 385.559C162.204 403.266 158.799 430.426 144.886 445.93C138.798 452.715 128.851 457.589 121.053 457.607C101.765 457.654 82.3468 439.741 82.3037 421.863C82.2856 414.343 84.7366 409.213 90.991 403.685C96.7656 398.581 100.417 397.115 107.374 397.11C120.52 397.099 129.547 411.523 122.244 420.871C119.537 424.336 119.208 424.409 108.751 423.884C96.7762 423.283 96.2605 423.735 100.974 430.707C109.735 443.665 125.147 445.514 135.717 434.874C152.014 418.465 143.33 387.6 120.699 381.497C112.021 379.157 96.7587 380.794 88.2871 384.972C80.1802 388.969 71.5645 396.829 66.5926 404.763C64.7573 407.691 63.0158 410.088 62.7227 410.089C62.4295 410.09 60.7454 406.95 58.9799 403.11C54.8182 394.06 46.6691 385.33 39.0531 381.761C31.9378 378.426 21.6449 375.328 13.4952 376.5L20.4965 342.5L14.4965 379Z" fill="#F4A900"/>
<path fill-rule="evenodd" clip-rule="evenodd" d="M173.725 60.8888C164.398 81.5366 154.141 79.8436 138.033 89.8222C124.062 98.4761 118.531 107.127 116.015 124.262C114.185 136.735 81.6101 144.435 81.6974 154.259C81.7818 163.747 71.0698 171.706 63.6652 174.398C53.1433 178.224 76.8003 174.728 70.4791 180.492C63.1695 187.154 63.2753 192.715 61.198 204.35C57.2932 226.22 59.42 213.988 42.9961 232.001L34.4428 254.752L40.0467 254.334C46.373 253.862 54.8967 250.583 59.7013 246.774C64.0734 243.306 65.8631 229.013 67.4961 222.001C68.7138 216.77 72.2588 221.815 73.4987 223.191C84.133 234.99 97.8831 240.091 111.987 237.468C124.174 235.2 132.73 226.398 133.742 215.085C134.323 208.587 133.334 203.839 130.373 198.911C124.011 188.322 110.568 185.961 102.507 194.017C99.3091 197.212 96.3466 203.154 96.8072 205.451C96.9482 206.158 99.5279 205.84 104.63 204.488C111.815 202.584 112.411 202.583 115.26 204.462C118.766 206.775 119.712 210.025 118.41 215.287C116.817 221.725 110.603 226.039 103.508 225.629C97.7995 225.301 87.8833 218.578 86.075 213.811C81.7707 202.461 89.0381 186.661 101.635 179.979C113.389 173.744 127.217 177.752 136.817 190.175C140.602 195.074 140.974 196.066 143.307 207.504C145.847 219.949 145.842 220.169 142.776 231.118C142.189 233.211 149.466 230.25 152.697 227.08C156.98 222.88 158.782 216.794 158.023 209.096C157.724 206.073 157.857 203.524 158.317 203.43C158.777 203.336 159.229 203.628 159.321 204.078C159.615 205.52 170.711 212.695 175.362 214.451C181.796 216.879 191.61 217.867 197.455 216.675L202.487 215.648L200.411 208.795C197.298 198.517 190.928 190.662 180.657 184.441L172.559 179.535L178.075 177.989C181.108 177.138 185.363 175.09 187.53 173.439C192.223 169.861 195.44 162.68 194.472 157.938C194.113 156.177 193.655 154.769 193.455 154.81C193.255 154.851 191.391 156.323 189.311 158.082C177.422 168.141 156.39 169.703 142.562 161.555C136.511 157.989 131.316 151.218 130.115 145.332C127.144 130.771 137.717 113.378 151.214 110.624C156.891 109.466 161.138 110.536 166.265 114.418C171 118.003 172.663 120.538 173.725 125.791C175.735 135.719 166.215 144.732 158.042 140.639C155.013 139.122 154.908 138.885 153.713 130.907C152.344 121.771 151.924 121.45 147.376 126.071C138.922 134.661 139.872 146.583 149.517 152.946C164.391 162.758 186.381 151.5 187.546 133.479C187.992 126.568 184.433 115.29 179.988 109.528C175.735 104.013 168.487 98.7023 161.738 96.1547C159.247 95.2143 157.171 94.2639 157.126 94.0426C157.08 93.8213 159.196 92.0714 161.827 90.1535C168.029 85.6326 173.382 78.1488 174.918 71.8533C176.354 65.9717 189.655 62.1423 187.53 56.1653L185.245 48.1351L173.725 60.8888Z" fill="#F4A900"/>
</svg>
