<svg width="20" height="21" viewBox="0 0 20 21" fill="none" xmlns="http://www.w3.org/2000/svg">
<path id="Vector" fill-rule="evenodd" clip-rule="evenodd" d="M17 3.375C15.125 1.5 12.625 0.5 10 0.5C4.5 0.5 0 5 0 10.5C0 12.25 0.500008 14 1.37501 15.5L0 20.5L5.25002 19.125C6.75002 19.875 8.375 20.375 10 20.375C15.5 20.375 20 15.875 20 10.375C20 7.75 18.875 5.25 17 3.375ZM10 18.75C8.5 18.75 7.00001 18.375 5.75001 17.625L5.49999 17.5L2.37499 18.375L3.25001 15.375L2.99999 15C2.12499 13.625 1.74999 12.125 1.74999 10.625C1.74999 6.125 5.5 2.375 10 2.375C12.25 2.375 14.25 3.25 15.875 4.75C17.5 6.375 18.25 8.375 18.25 10.625C18.25 15 14.625 18.75 10 18.75ZM14.5 12.5C14.25 12.375 13 11.75 12.75 11.75C12.5 11.625 12.375 11.625 12.25 11.875C12.125 12.125 11.625 12.625 11.5 12.875C11.375 13 11.25 13 11 13C10.75 12.875 10 12.625 9.00002 11.75C8.25002 11.125 7.75001 10.25 7.62501 10C7.50001 9.75 7.62502 9.625 7.75002 9.5C7.87502 9.375 8 9.25 8.125 9.125C8.25 9 8.25002 8.875 8.37502 8.75C8.50002 8.625 8.37502 8.5 8.37502 8.375C8.37502 8.25 7.87501 7 7.62501 6.5C7.50001 6.125 7.25002 6.125 7.12502 6.125C7.00002 6.125 6.87498 6.125 6.62498 6.125C6.49998 6.125 6.24998 6.125 5.99998 6.375C5.74998 6.625 5.12501 7.25 5.12501 8.5C5.12501 9.75 5.99999 10.875 6.12499 11.125C6.24999 11.25 7.87498 13.875 10.375 14.875C12.5 15.75 12.875 15.5 13.375 15.5C13.875 15.5 14.875 14.875 15 14.375C15.25 13.75 15.25 13.25 15.125 13.25C15 12.625 14.75 12.625 14.5 12.5Z" fill="white"/>
</svg>
