<svg width="18" height="15" viewBox="0 0 18 15" fill="none" xmlns="http://www.w3.org/2000/svg">
<path id="Vector" d="M1.23741 6.52697C6.06923 4.55126 9.29121 3.24875 10.9033 2.61944C15.5063 0.822639 16.4627 0.510516 17.0861 0.5001C17.2232 0.497943 17.5298 0.529834 17.7284 0.681063C17.8961 0.808757 17.9422 0.981255 17.9643 1.10232C17.9864 1.22339 18.0139 1.49919 17.992 1.71469C17.7426 4.17437 16.6633 10.1434 16.1142 12.8983C15.8818 14.064 15.4244 14.4548 14.9815 14.4931C14.0189 14.5762 13.288 13.8961 12.3558 13.3226C10.897 12.4251 10.0729 11.8664 8.65691 10.9907C7.02048 9.97862 8.08131 9.42236 9.0139 8.51329C9.25797 8.27538 13.4988 4.65516 13.5809 4.32675C13.5912 4.28568 13.6007 4.13258 13.5038 4.05173C13.4069 3.97089 13.2639 3.99853 13.1606 4.02052C13.0143 4.05169 10.6839 5.4973 6.16938 8.35735C5.5079 8.78364 4.90875 8.99135 4.37193 8.98046C3.78013 8.96846 2.64175 8.66643 1.79548 8.40825C0.757494 8.09159 -0.0674757 7.92417 0.00436067 7.38638C0.0417775 7.10627 0.452793 6.8198 1.23741 6.52697Z" fill="white"/>
</svg>
