<svg width="35" height="35" viewBox="0 0 35 35" fill="none" xmlns="http://www.w3.org/2000/svg">
<g clip-path="url(#clip0_417_912)">
<path fill-rule="evenodd" clip-rule="evenodd" d="M18.9514 15.9467C18.9942 15.983 19.0438 16.0105 19.0973 16.0275C19.1508 16.0445 19.2072 16.0507 19.2631 16.0459C21.4309 16.0151 23.5222 15.2398 25.1862 13.85C25.7393 13.319 26.1818 12.6837 26.4882 11.9807C26.7946 11.2778 26.9587 10.5212 26.9712 9.75446C27.0321 8.95965 26.7943 8.1707 26.3044 7.5419C25.8145 6.9131 25.1076 6.48968 24.322 6.35446C23.8583 6.263 23.3809 6.26605 22.9184 6.36342C22.4559 6.46079 22.0178 6.65048 21.6303 6.92112C21.2499 6.1629 20.6264 5.55393 19.8595 5.19137C19.5095 5.02215 19.1292 4.92458 18.7409 4.90437C18.3527 4.88416 17.9643 4.94174 17.5986 5.07371C17.2329 5.20568 16.8973 5.40939 16.6114 5.67287C16.3255 5.93635 16.0952 6.2543 15.9339 6.60804C15.1933 7.92202 14.9999 9.47479 15.3956 10.9303C16.0125 12.94 17.2591 14.6995 18.9514 15.9467ZM17.2372 7.37162C17.4044 7.04989 17.6884 6.80447 18.031 6.68588C18.3736 6.56729 18.7487 6.58455 19.0789 6.73412C19.4609 6.91956 19.7799 7.21309 19.9965 7.57827C20.2131 7.94345 20.3177 8.3642 20.2972 8.78829C20.3351 8.96345 20.4211 9.12458 20.5455 9.25356C20.6699 9.38255 20.8278 9.47427 21.0015 9.51843C21.1752 9.56258 21.3577 9.55742 21.5286 9.50351C21.6995 9.44961 21.852 9.3491 21.9689 9.21329C22.1551 8.84072 22.4539 8.53621 22.8228 8.34296C23.1918 8.14971 23.6122 8.07752 24.0245 8.13662C24.4339 8.18971 24.8078 8.39622 25.0708 8.71441C25.3338 9.0326 25.4661 9.43875 25.4412 9.85079C25.4699 10.5769 25.318 11.2989 24.999 11.9519C24.6801 12.6048 24.2041 13.1685 23.6137 13.5922C22.3528 14.4592 20.888 14.9805 19.3637 15.108C18.263 14.1199 17.4252 12.8736 16.9256 11.4814C16.6459 10.8214 16.5282 10.1041 16.5825 9.38936C16.6367 8.67463 16.8612 7.98184 17.2372 7.37162ZM33.1082 2.20221C33.0271 1.63875 32.7344 1.12734 32.2897 0.772047C31.8449 0.416754 31.2814 0.244275 30.714 0.289707C30.1929 0.333346 29.6979 0.536116 29.2959 0.87054C28.9391 0.561477 28.5019 0.360058 28.0351 0.289707C27.7641 0.23668 27.4852 0.238466 27.2148 0.294958C26.9445 0.35145 26.6882 0.461505 26.4611 0.618631C26.234 0.775756 26.0407 0.976771 25.8925 1.20982C25.7443 1.44286 25.6443 1.70322 25.5984 1.97554C25.4743 2.45132 25.4467 2.94714 25.5173 3.43376C25.5878 3.92037 25.7551 4.38793 26.0092 4.80887C26.7426 6.05298 27.9233 6.97015 29.3101 7.37304C30.6341 7.02674 31.7993 6.23664 32.6109 5.13471C32.883 4.70281 33.0669 4.22133 33.152 3.71802C33.2371 3.21472 33.2231 2.69954 33.1082 2.20221ZM31.1659 4.78054C29.3512 7.11804 28.2037 5.87137 27.4103 4.62471C27.1967 4.30518 27.0621 3.93939 27.0178 3.55757C26.9734 3.17575 27.0206 2.78886 27.1553 2.42887C27.1857 2.29756 27.2669 2.18362 27.381 2.11194C27.4951 2.04027 27.633 2.0167 27.7645 2.04637C28.2934 2.2466 28.8081 2.47798 29.3087 2.74054C30.0595 2.32971 30.0028 2.14554 30.8812 2.06054C31.0414 2.04288 31.2025 2.08524 31.3333 2.17943C31.4642 2.27363 31.5554 2.41297 31.5895 2.57054C31.709 2.94508 31.7328 3.3436 31.6585 3.72968C31.5843 4.11575 31.4158 4.47706 31.1659 4.78054ZM5.60358 19.4034C6.01442 19.5734 6.43942 19.7292 6.86442 19.8709L8.18192 20.2959L9.51358 20.6784C10.1652 20.8342 10.6469 19.715 10.1086 19.3892L8.73442 18.7092C8.30942 18.5109 7.87025 18.3267 7.43108 18.1709C6.96718 18.0067 6.49417 17.8695 6.01442 17.76C5.54739 17.6685 5.0735 17.6164 4.59775 17.6042C3.76192 17.7459 3.39358 18.525 4.13025 18.865L5.60358 19.4034ZM17.3364 23.584C17.5083 23.414 17.6689 23.2345 17.8181 23.0456C18.002 22.7651 18.1451 22.4598 18.2431 22.139C18.3223 21.7034 18.3223 21.2571 18.2431 20.8215C18.1551 20.3125 17.9568 19.829 17.6622 19.4048C17.2883 18.8959 16.8056 18.4767 16.2494 18.1777C15.6931 17.8788 15.0772 17.7075 14.4464 17.6765C13.7593 17.6635 13.0803 17.8273 12.4748 18.1523C11.8692 18.4773 11.3573 18.9525 10.9883 19.5323C10.5909 20.0619 10.3442 20.6892 10.2744 21.3476C10.2045 22.006 10.3142 22.6711 10.5917 23.2723C10.7862 23.6236 11.0271 23.94 11.3142 24.2215C11.8539 24.8678 12.6177 25.2867 13.4529 25.3944C14.2881 25.5021 15.1331 25.2906 15.8192 24.8023C16.3984 24.4973 16.9135 24.0837 17.3364 23.584ZM15.1689 23.6831C12.4489 25.2131 11.4133 22.649 11.7392 21.289C11.8978 20.716 12.2496 20.2154 12.7349 19.8721C13.2203 19.5287 13.8094 19.3636 14.4025 19.4048C14.772 19.4243 15.1333 19.5214 15.4629 19.6898C15.7924 19.8583 16.0827 20.0942 16.315 20.3823C16.4832 20.6689 16.5872 20.9886 16.6198 21.3193C16.6523 21.65 16.6127 21.9838 16.5036 22.2977C16.3944 22.6116 16.2185 22.898 15.9878 23.1372C15.7571 23.3764 15.4772 23.5627 15.1675 23.6831M21.8853 27.127C21.3328 26.5887 20.7378 26.0504 20.1428 25.5545C19.4451 24.9735 18.7065 24.4432 17.9328 23.9679C17.7753 23.9145 17.6037 23.9208 17.4504 23.9855C17.2972 24.0501 17.173 24.1687 17.1013 24.3188C17.0295 24.4688 17.0153 24.64 17.0613 24.7998C17.1072 24.9597 17.2101 25.0971 17.3506 25.1862C18.0872 25.8804 17.9881 25.8662 18.6964 26.6029C19.2489 27.178 19.8345 27.7164 20.4531 28.2179C20.897 28.5909 21.3692 28.9215 21.8697 29.2095C22.3514 29.337 23.2878 28.742 22.9039 28.1612L21.8853 27.127ZM22.7778 20.4375C22.2785 20.3883 21.7755 20.3883 21.2762 20.4375C20.5795 20.4709 19.8896 20.5898 19.222 20.7917C18.5987 21.33 18.8112 21.7409 19.392 22.0809C19.8586 22.18 20.3308 22.2131 20.8087 22.18H23.2878C24.1237 22.18 24.1095 22.18 24.9595 22.0809C26.192 21.8684 25.7245 20.9475 25.2995 20.7775C24.4739 20.5722 23.6283 20.4582 22.7778 20.4375Z" fill="white"/>
<path fill-rule="evenodd" clip-rule="evenodd" d="M25.4695 16.1451C25.3893 16.0303 25.2674 15.9513 25.1299 15.9248C24.9924 15.8983 24.8499 15.9265 24.7328 16.0034C24.6756 16.043 24.6268 16.0936 24.5894 16.1523C24.5519 16.2109 24.5265 16.2764 24.5147 16.345C24.5028 16.4136 24.5047 16.4838 24.5203 16.5517C24.5358 16.6195 24.5647 16.6835 24.6053 16.7401C25.2959 17.8963 25.7438 19.181 25.9216 20.516C26.0994 21.851 26.0034 23.2082 25.6395 24.5048C24.8171 27.0827 23.1756 29.3216 20.9645 30.8812C19.1199 31.9864 17.0076 32.5646 14.8572 32.5529C12.7099 32.6247 10.5807 32.1365 8.67917 31.1362C7.65661 30.5489 6.70538 29.8454 5.84442 29.0396C4.29605 27.7172 3.28769 25.8719 3.01108 23.8546C2.84488 22.0898 3.05436 20.3098 3.62573 18.6318C4.19711 16.9538 5.11742 15.4159 6.32608 14.1192C8.23515 12.2627 10.7518 11.1601 13.4108 11.0153C13.5348 11.0153 13.6537 10.9661 13.7414 10.8784C13.8291 10.7907 13.8783 10.6718 13.8783 10.5478C13.8713 10.4237 13.8178 10.3068 13.7286 10.2202C13.6394 10.1336 13.5209 10.0837 13.3967 10.0803C10.4681 10.1383 7.65971 11.2556 5.49167 13.2253C3.37216 15.2826 1.96716 17.9645 1.4825 20.8782C1.27305 22.1091 1.23966 23.3636 1.38333 24.604C1.75251 26.8105 2.88584 28.8169 4.585 30.2721C5.5625 31.1787 6.64058 31.9692 7.80083 32.6237C9.97995 33.7754 12.4241 34.3324 14.887 34.2387C17.3551 34.1998 19.7617 33.4631 21.8287 32.1137C24.2976 30.3111 26.0817 27.7239 26.889 24.7754C27.2492 23.3159 27.3094 21.7984 27.0659 20.3149C26.8224 18.8315 26.2803 17.4129 25.4723 16.1451" fill="white"/>
<path fill-rule="evenodd" clip-rule="evenodd" d="M6.21417 26.2487C6.965 26.022 7.63083 25.7245 8.41 25.427C9.18917 25.1295 9.82667 24.7895 10.705 24.4353C11.045 24.152 10.705 23.2156 9.74167 23.387C8.96742 23.5078 8.20452 23.6926 7.46083 23.9395C6.72417 24.1662 6.3275 24.3078 5.61775 24.5912C5.16442 24.7796 4.73942 25.0332 4.35692 25.342C3.90358 25.937 3.93192 26.3195 4.69692 26.5887C5.21195 26.5243 5.72099 26.4105 6.21417 26.2487Z" fill="white"/>
</g>
<defs>
<clipPath id="clip0_417_912">
<rect width="34" height="34" fill="white" transform="translate(0.25 0.25)"/>
</clipPath>
</defs>
</svg>
