<svg width="25" height="25" viewBox="0 0 25 25" fill="none" xmlns="http://www.w3.org/2000/svg">
<path d="M10.9016 1.74629C11.3168 1.33953 11.5244 1.13615 11.7628 1.05975C11.9726 0.992534 12.1981 0.992534 12.4079 1.05975C12.6463 1.13615 12.8539 1.33953 13.2691 1.74629L13.8721 2.3371C14.1205 2.58052 14.2447 2.70223 14.3913 2.77614C14.5209 2.84154 14.6627 2.87953 14.8077 2.88772C14.9715 2.89698 15.14 2.85369 15.4768 2.7671L16.2945 2.55694C16.8574 2.41226 17.1388 2.33991 17.3835 2.39297C17.5988 2.43965 17.7941 2.55242 17.9422 2.71552C18.1105 2.9009 18.1886 3.18082 18.3447 3.74066L18.5715 4.55383C18.665 4.88885 18.7117 5.05637 18.8017 5.19364C18.8813 5.31512 18.985 5.41889 19.1065 5.49849C19.2438 5.58843 19.4113 5.63516 19.7463 5.7286L20.5595 5.95542C21.1193 6.11157 21.3993 6.18965 21.5846 6.35793C21.7477 6.50601 21.8605 6.70133 21.9072 6.91662C21.9602 7.1613 21.8879 7.44276 21.7432 8.00568L21.5331 8.8233C21.4465 9.16017 21.4032 9.3286 21.4124 9.49245C21.4206 9.63746 21.4586 9.77921 21.524 9.90889C21.5979 10.0554 21.7196 10.1796 21.963 10.4281L22.5539 11.0311C22.9606 11.4462 23.164 11.6538 23.2404 11.8922C23.3076 12.102 23.3076 12.3276 23.2404 12.5374C23.164 12.7758 22.9606 12.9834 22.5539 13.3985L21.963 14.0015C21.7196 14.25 21.5979 14.3742 21.524 14.5207C21.4586 14.6504 21.4206 14.7922 21.4124 14.9372C21.4032 15.101 21.4465 15.2694 21.5331 15.6063L21.7432 16.4239C21.8879 16.9868 21.9602 17.2683 21.9072 17.513C21.8605 17.7283 21.7477 17.9236 21.5846 18.0717C21.3993 18.24 21.1193 18.318 20.5595 18.4742L19.7463 18.701C19.4113 18.7945 19.2438 18.8412 19.1065 18.9311C18.985 19.0107 18.8813 19.1145 18.8017 19.236C18.7117 19.3732 18.665 19.5408 18.5715 19.8758L18.3447 20.6889C18.1886 21.2488 18.1105 21.5287 17.9422 21.7141C17.7941 21.8772 17.5988 21.99 17.3835 22.0366C17.1388 22.0897 16.8574 22.0174 16.2945 21.8727L15.4768 21.6625C15.14 21.5759 14.9715 21.5326 14.8077 21.5419C14.6627 21.5501 14.5209 21.5881 14.3913 21.6535C14.2447 21.7274 14.1205 21.8491 13.8721 22.0925L13.2691 22.6833C12.8539 23.0901 12.6463 23.2935 12.4079 23.3699C12.1981 23.4371 11.9726 23.4371 11.7628 23.3699C11.5244 23.2935 11.3168 23.0901 10.9016 22.6833L10.2986 22.0925C10.0502 21.8491 9.92596 21.7274 9.77943 21.6535C9.64976 21.5881 9.508 21.5501 9.363 21.5419C9.19915 21.5326 9.03071 21.5759 8.69385 21.6625L7.87622 21.8727C7.31331 22.0174 7.03185 22.0897 6.78717 22.0366C6.57188 21.99 6.37655 21.8772 6.22848 21.7141C6.06019 21.5287 5.98211 21.2488 5.82596 20.6889L5.59915 19.8758C5.5057 19.5408 5.45898 19.3732 5.36903 19.236C5.28944 19.1145 5.18566 19.0107 5.06418 18.9311C4.92691 18.8412 4.7594 18.7945 4.42437 18.701L3.6112 18.4742C3.05136 18.318 2.77144 18.24 2.58607 18.0717C2.42296 17.9236 2.31019 17.7283 2.26351 17.513C2.21046 17.2683 2.2828 16.9868 2.42749 16.4239L2.63765 15.6063C2.72423 15.2694 2.76752 15.101 2.75827 14.9372C2.75007 14.7922 2.71209 14.6504 2.64668 14.5207C2.57278 14.3742 2.45107 14.25 2.20765 14.0015L1.61683 13.3985C1.21007 12.9834 1.00669 12.7758 0.930296 12.5374C0.863078 12.3276 0.863078 12.102 0.930296 11.8922C1.00669 11.6538 1.21007 11.4462 1.61683 11.0311L2.20765 10.4281C2.45107 10.1796 2.57278 10.0554 2.64668 9.90889C2.71209 9.77921 2.75007 9.63746 2.75827 9.49245C2.76752 9.3286 2.72423 9.16017 2.63765 8.8233L2.42749 8.00568C2.2828 7.44276 2.21046 7.1613 2.26351 6.91662C2.31019 6.70133 2.42296 6.50601 2.58607 6.35793C2.77144 6.18965 3.05136 6.11157 3.61121 5.95542L4.42437 5.7286C4.7594 5.63516 4.92691 5.58843 5.06418 5.49849C5.18566 5.41889 5.28944 5.31512 5.36903 5.19364C5.45898 5.05637 5.5057 4.88885 5.59915 4.55383L5.82596 3.74066C5.98211 3.18082 6.06019 2.9009 6.22848 2.71552C6.37655 2.55242 6.57188 2.43965 6.78717 2.39297C7.03185 2.33991 7.31331 2.41226 7.87622 2.55694L8.69385 2.7671C9.03071 2.85369 9.19915 2.89698 9.363 2.88772C9.508 2.87953 9.64976 2.84154 9.77943 2.77614C9.92596 2.70223 10.0502 2.58052 10.2986 2.3371L10.9016 1.74629Z" fill="#0D662B"/>
<path d="M11.103 14.2543L10.6825 13.8338L11.103 14.2543ZM15.6772 10.521C15.9094 10.2888 15.9094 9.91232 15.6772 9.6801C15.445 9.44788 15.0685 9.44788 14.8362 9.6801L15.6772 10.521ZM10.9535 14.2543L11.3739 13.8338L11.3739 13.8338L10.9535 14.2543ZM9.33446 11.7943C9.10224 11.5621 8.72574 11.5621 8.49353 11.7943C8.26131 12.0266 8.26131 12.4031 8.49353 12.6353L9.33446 11.7943ZM8.69385 2.7671L8.84187 2.19119V2.19119L8.69385 2.7671ZM9.363 2.88772L9.39654 3.4814L9.363 2.88772ZM10.2986 2.3371L10.7148 2.76184L10.2986 2.3371ZM9.77943 2.77614L10.0472 3.30706L9.77943 2.77614ZM5.82596 3.74066L5.25319 3.5809V3.5809L5.82596 3.74066ZM6.22848 2.71552L6.66875 3.11521L6.22848 2.71552ZM7.87622 2.55694L7.72819 3.13285L7.87622 2.55694ZM6.78717 2.39297L6.66116 1.81184L6.78717 2.39297ZM4.42437 5.7286L4.26461 5.15584H4.26461L4.42437 5.7286ZM5.06418 5.49849L5.39008 5.99586L5.06418 5.49849ZM5.59915 4.55383L6.17191 4.71359V4.71358L5.59915 4.55383ZM5.36903 5.19364L5.8664 5.51953L5.36903 5.19364ZM2.42749 8.00568L3.0034 7.85765V7.85765L2.42749 8.00568ZM2.26351 6.91662L1.68239 6.79062L2.26351 6.91662ZM3.61121 5.95542L3.77096 6.52818H3.77096L3.61121 5.95542ZM2.58607 6.35793L2.98575 6.7982L2.58607 6.35793ZM2.20765 10.4281L2.63239 10.8442H2.63239L2.20765 10.4281ZM2.64668 9.90889L3.1776 10.1767L2.64668 9.90889ZM2.63765 8.8233L2.06174 8.97133L2.63765 8.8233ZM2.75827 9.49245L3.35195 9.526L2.75827 9.49245ZM1.61683 13.3985L1.19209 13.8147L1.61683 13.3985ZM0.930296 12.5374L0.364024 12.7188L0.930296 12.5374ZM1.61683 11.0311L1.19209 10.6149H1.19209L1.61683 11.0311ZM0.930296 11.8922L0.364024 11.7108L0.930296 11.8922ZM2.63765 15.6063L3.21355 15.7543L2.63765 15.6063ZM2.75827 14.9372L3.35195 14.9036L2.75827 14.9372ZM2.20765 14.0015L2.63239 13.5854L2.20765 14.0015ZM2.64668 14.5207L3.1776 14.2529L2.64668 14.5207ZM3.6112 18.4742L3.77096 17.9014H3.77096L3.6112 18.4742ZM2.58607 18.0717L2.98575 17.6314L2.58607 18.0717ZM2.42749 16.4239L1.85158 16.2759L2.42749 16.4239ZM2.26351 17.513L1.68239 17.639L2.26351 17.513ZM5.59915 19.8758L6.17191 19.716L5.59915 19.8758ZM5.36903 19.236L5.8664 18.9101L5.36903 19.236ZM4.42437 18.701L4.26461 19.2738H4.26461L4.42437 18.701ZM5.06418 18.9311L5.39008 18.4337L5.06418 18.9311ZM7.87622 21.8727L7.72819 21.2968L7.87622 21.8727ZM6.78717 22.0366L6.91317 21.4555L6.78717 22.0366ZM5.82596 20.6889L5.25319 20.8487L5.82596 20.6889ZM6.22848 21.7141L5.78821 22.1138L6.22848 21.7141ZM10.2986 22.0925L10.7148 21.6678H10.7148L10.2986 22.0925ZM9.77943 21.6535L9.51164 22.1844L9.77943 21.6535ZM8.69385 21.6625L8.84188 22.2384L8.69385 21.6625ZM9.363 21.5419L9.39654 20.9482L9.363 21.5419ZM13.2691 22.6833L12.8529 22.2586L13.2691 22.6833ZM12.4079 23.3699L12.2265 22.8036L12.4079 23.3699ZM10.9016 22.6833L10.4855 23.1081L10.4855 23.1081L10.9016 22.6833ZM11.7628 23.3699L11.9442 22.8036L11.7628 23.3699ZM15.4768 21.6625L15.3288 22.2384L15.4768 21.6625ZM14.8077 21.5419L14.7742 20.9482L14.8077 21.5419ZM13.8721 22.0925L14.2882 22.5172L13.8721 22.0925ZM14.3913 21.6535L14.6591 22.1844L14.3913 21.6535ZM18.3447 20.6889L17.772 20.5292L17.772 20.5292L18.3447 20.6889ZM17.9422 21.7141L18.3825 22.1138L17.9422 21.7141ZM16.2945 21.8727L16.4425 21.2968L16.2945 21.8727ZM17.3835 22.0366L17.2575 21.4555L17.3835 22.0366ZM19.7463 18.701L19.9061 19.2738L19.7463 18.701ZM19.1065 18.9311L18.7806 18.4337L19.1065 18.9311ZM18.5715 19.8758L19.1443 20.0355L18.5715 19.8758ZM18.8017 19.236L18.3043 18.9101L18.8017 19.236ZM21.7432 16.4239L21.1673 16.572L21.7432 16.4239ZM21.9072 17.513L21.3261 17.387L21.9072 17.513ZM20.5595 18.4742L20.3997 17.9014L20.5595 18.4742ZM21.5846 18.0717L21.9843 18.5119L21.5846 18.0717ZM21.963 14.0015L21.5383 13.5854V13.5854L21.963 14.0015ZM21.524 14.5207L22.0549 14.7885L21.524 14.5207ZM21.5331 15.6063L22.109 15.4583L21.5331 15.6063ZM21.4124 14.9372L20.8187 14.9036L21.4124 14.9372ZM22.5539 11.0311L22.1291 11.4472L22.5539 11.0311ZM23.2404 11.8922L22.6741 12.0737L23.2404 11.8922ZM22.5539 13.3985L22.9786 13.8147L22.9786 13.8147L22.5539 13.3985ZM23.2404 12.5374L22.6741 12.3559L23.2404 12.5374ZM21.5331 8.8233L22.109 8.97133L21.5331 8.8233ZM21.4124 9.49245L20.8187 9.526L21.4124 9.49245ZM21.963 10.4281L22.3878 10.0119V10.0119L21.963 10.4281ZM21.524 9.90889L22.0549 9.6411L21.524 9.90889ZM20.5595 5.95542L20.3997 6.52818L20.5595 5.95542ZM21.5846 6.35793L21.9843 5.91767L21.5846 6.35793ZM21.7432 8.00568L21.1673 7.85765L21.7432 8.00568ZM21.9072 6.91662L21.3261 7.04263L21.9072 6.91662ZM18.5715 4.55383L19.1443 4.39407V4.39407L18.5715 4.55383ZM18.8017 5.19364L18.3043 5.51953L18.8017 5.19364ZM19.7463 5.7286L19.9061 5.15584L19.7463 5.7286ZM19.1065 5.49849L18.7806 5.99586L19.1065 5.49849ZM16.2945 2.55694L16.4425 3.13285L16.2945 2.55694ZM17.3835 2.39297L17.5095 1.81184L17.3835 2.39297ZM18.3447 3.74066L17.772 3.90042V3.90042L18.3447 3.74066ZM17.9422 2.71552L17.502 3.11521L17.9422 2.71552ZM13.8721 2.3371L13.4559 2.76184V2.76184L13.8721 2.3371ZM14.3913 2.77614L14.1235 3.30706L14.3913 2.77614ZM15.4768 2.7671L15.3288 2.19119L15.4768 2.7671ZM14.8077 2.88772L14.7742 3.4814L14.8077 2.88772ZM13.2691 1.74629L13.6852 1.32155V1.32155L13.2691 1.74629ZM12.4079 1.05975L12.5893 0.49348L12.4079 1.05975ZM10.9016 1.74629L10.4855 1.32155L10.9016 1.74629ZM11.7628 1.05975L11.5814 0.49348L11.7628 1.05975ZM11.5234 14.6748L15.6772 10.521L14.8362 9.6801L10.6825 13.8338L11.5234 14.6748ZM11.3739 13.8338L9.33446 11.7943L8.49353 12.6353L10.533 14.6748L11.3739 13.8338ZM10.6825 13.8338C10.8734 13.6429 11.183 13.6429 11.3739 13.8338L10.533 14.6748C10.8065 14.9483 11.2499 14.9483 11.5234 14.6748L10.6825 13.8338ZM12.8529 2.17102L13.4559 2.76184L14.2882 1.91237L13.6852 1.32155L12.8529 2.17102ZM15.6249 3.34301L16.4425 3.13285L16.1464 1.98103L15.3288 2.19119L15.6249 3.34301ZM17.772 3.90042L17.9988 4.71359L19.1443 4.39407L18.9175 3.5809L17.772 3.90042ZM19.5866 6.30137L20.3997 6.52818L20.7192 5.38265L19.9061 5.15584L19.5866 6.30137ZM21.1673 7.85765L20.9571 8.67528L22.109 8.97133L22.3191 8.1537L21.1673 7.85765ZM21.5383 10.8442L22.1291 11.4472L22.9786 10.6149L22.3878 10.0119L21.5383 10.8442ZM22.1291 12.9824L21.5383 13.5854L22.3878 14.4177L22.9786 13.8147L22.1291 12.9824ZM20.9571 15.7543L21.1673 16.572L22.3191 16.2759L22.109 15.4583L20.9571 15.7543ZM20.3997 17.9014L19.5866 18.1282L19.9061 19.2738L20.7192 19.047L20.3997 17.9014ZM17.9988 19.716L17.772 20.5292L18.9175 20.8487L19.1443 20.0355L17.9988 19.716ZM16.4425 21.2968L15.6249 21.0866L15.3288 22.2384L16.1464 22.4486L16.4425 21.2968ZM13.4559 21.6678L12.8529 22.2586L13.6852 23.1081L14.2882 22.5172L13.4559 21.6678ZM11.3178 22.2586L10.7148 21.6678L9.88247 22.5172L10.4855 23.1081L11.3178 22.2586ZM8.54582 21.0866L7.72819 21.2968L8.02425 22.4486L8.84188 22.2384L8.54582 21.0866ZM6.39873 20.5292L6.17191 19.716L5.02638 20.0355L5.25319 20.8487L6.39873 20.5292ZM4.58413 18.1282L3.77096 17.9014L3.45145 19.047L4.26461 19.2738L4.58413 18.1282ZM3.0034 16.572L3.21355 15.7543L2.06174 15.4583L1.85158 16.2759L3.0034 16.572ZM2.63239 13.5854L2.04157 12.9824L1.19209 13.8147L1.78291 14.4177L2.63239 13.5854ZM2.04157 11.4472L2.63239 10.8442L1.78291 10.0119L1.19209 10.6149L2.04157 11.4472ZM3.21355 8.67527L3.0034 7.85765L1.85158 8.1537L2.06174 8.97133L3.21355 8.67527ZM3.77096 6.52818L4.58413 6.30137L4.26461 5.15584L3.45145 5.38265L3.77096 6.52818ZM6.17191 4.71358L6.39873 3.90042L5.25319 3.5809L5.02638 4.39407L6.17191 4.71358ZM7.72819 3.13285L8.54582 3.34301L8.84187 2.19119L8.02425 1.98103L7.72819 3.13285ZM10.7148 2.76184L11.3178 2.17102L10.4855 1.32155L9.88247 1.91237L10.7148 2.76184ZM8.54582 3.34301C8.8448 3.41986 9.11868 3.4971 9.39654 3.4814L9.32945 2.29404C9.27961 2.29686 9.21663 2.28752 8.84187 2.19119L8.54582 3.34301ZM9.88247 1.91237C9.60609 2.18316 9.55622 2.22274 9.51164 2.24522L10.0472 3.30706C10.2957 3.18172 10.4943 2.97788 10.7148 2.76184L9.88247 1.91237ZM9.39654 3.4814C9.62311 3.4686 9.84461 3.40925 10.0472 3.30706L9.51164 2.24522C9.45491 2.27384 9.39289 2.29046 9.32945 2.29404L9.39654 3.4814ZM6.39873 3.90042C6.47941 3.61115 6.53084 3.42844 6.58066 3.29315C6.62804 3.1645 6.65718 3.12795 6.66875 3.11521L5.78821 2.31584C5.63148 2.48848 5.53744 2.68457 5.46467 2.88218C5.39434 3.07316 5.32866 3.31033 5.25319 3.5809L6.39873 3.90042ZM8.02425 1.98103C7.75219 1.91111 7.51395 1.8494 7.3134 1.81482C7.10588 1.77904 6.88903 1.76243 6.66116 1.81184L6.91317 2.97409C6.92998 2.97045 6.97621 2.96349 7.11131 2.98678C7.25339 3.01128 7.43733 3.05809 7.72819 3.13285L8.02425 1.98103ZM6.66875 3.11521C6.73353 3.04385 6.81898 2.99451 6.91317 2.97409L6.66116 1.81184C6.32477 1.88478 6.01957 2.06099 5.78821 2.31584L6.66875 3.11521ZM4.58413 6.30137C4.88148 6.21843 5.15729 6.14839 5.39008 5.99586L4.73829 5.00112C4.69653 5.02848 4.63732 5.05188 4.26461 5.15584L4.58413 6.30137ZM5.02638 4.39407C4.92243 4.76678 4.89902 4.82599 4.87166 4.86775L5.8664 5.51953C6.01893 5.28675 6.08898 5.01093 6.17191 4.71359L5.02638 4.39407ZM5.39008 5.99586C5.57989 5.87149 5.74203 5.70934 5.8664 5.51953L4.87166 4.86775C4.83684 4.92089 4.79144 4.96629 4.73829 5.00112L5.39008 5.99586ZM3.0034 7.85765C2.92864 7.56679 2.88183 7.38284 2.85733 7.24077C2.83403 7.10566 2.84099 7.05944 2.84464 7.04263L1.68239 6.79062C1.63298 7.01849 1.64958 7.23533 1.68536 7.44285C1.71995 7.64341 1.78165 7.88165 1.85158 8.15371L3.0034 7.85765ZM3.45145 5.38265C3.18088 5.45812 2.9437 5.5238 2.75273 5.59413C2.55512 5.6669 2.35902 5.76094 2.18638 5.91767L2.98575 6.7982C2.99849 6.78664 3.03504 6.7575 3.1637 6.71012C3.29899 6.6603 3.48169 6.60887 3.77096 6.52818L3.45145 5.38265ZM2.84464 7.04263C2.86506 6.94844 2.9144 6.86298 2.98575 6.7982L2.18638 5.91767C1.93153 6.14903 1.75532 6.45423 1.68239 6.79062L2.84464 7.04263ZM2.63239 10.8442C2.84843 10.6237 3.05227 10.4252 3.1776 10.1767L2.11577 9.6411C2.09328 9.68567 2.05371 9.73554 1.78291 10.0119L2.63239 10.8442ZM2.06174 8.97133C2.15806 9.34608 2.1674 9.40906 2.16458 9.45891L3.35195 9.526C3.36765 9.24814 3.2904 8.97425 3.21355 8.67527L2.06174 8.97133ZM3.1776 10.1767C3.2798 9.97406 3.33915 9.75256 3.35195 9.526L2.16458 9.45891C2.161 9.52235 2.14438 9.58437 2.11577 9.6411L3.1776 10.1767ZM2.04157 12.9824C1.83139 12.7679 1.69888 12.632 1.60663 12.5212C1.5189 12.4158 1.50182 12.3723 1.49657 12.3559L0.364024 12.7188C0.435171 12.9409 0.557973 13.1203 0.692723 13.2822C0.822949 13.4386 0.995507 13.614 1.19209 13.8147L2.04157 12.9824ZM1.19209 10.6149C0.995508 10.8156 0.822949 10.991 0.692723 11.1474C0.557973 11.3093 0.435171 11.4888 0.364024 11.7108L1.49657 12.0737C1.50182 12.0573 1.5189 12.0138 1.60663 11.9084C1.69888 11.7976 1.83139 11.6617 2.04157 11.4472L1.19209 10.6149ZM1.49657 12.3559C1.46716 12.2641 1.46716 12.1655 1.49657 12.0737L0.364024 11.7108C0.258997 12.0386 0.258997 12.391 0.364024 12.7188L1.49657 12.3559ZM3.21355 15.7543C3.2904 15.4554 3.36765 15.1815 3.35195 14.9036L2.16458 14.9707C2.1674 15.0205 2.15806 15.0835 2.06174 15.4583L3.21355 15.7543ZM1.78291 14.4177C2.0537 14.6941 2.09328 14.7439 2.11577 14.7885L3.1776 14.2529C3.05227 14.0044 2.84843 13.8059 2.63239 13.5854L1.78291 14.4177ZM3.35195 14.9036C3.33915 14.677 3.2798 14.4555 3.1776 14.2529L2.11577 14.7885C2.14438 14.8452 2.161 14.9073 2.16458 14.9707L3.35195 14.9036ZM3.77096 17.9014C3.48169 17.8207 3.29899 17.7693 3.1637 17.7195C3.03504 17.6721 2.99849 17.643 2.98575 17.6314L2.18638 18.5119C2.35902 18.6687 2.55512 18.7627 2.75273 18.8355C2.9437 18.9058 3.18088 18.9715 3.45145 19.047L3.77096 17.9014ZM1.85158 16.2759C1.78165 16.548 1.71995 16.7862 1.68536 16.9868C1.64958 17.1943 1.63298 17.4111 1.68239 17.639L2.84464 17.387C2.84099 17.3702 2.83403 17.3239 2.85733 17.1888C2.88183 17.0468 2.92864 16.8628 3.0034 16.572L1.85158 16.2759ZM2.98575 17.6314C2.9144 17.5666 2.86506 17.4812 2.84464 17.387L1.68239 17.639C1.75532 17.9754 1.93153 18.2806 2.18638 18.5119L2.98575 17.6314ZM6.17191 19.716C6.08898 19.4187 6.01893 19.1429 5.8664 18.9101L4.87166 19.5619C4.89902 19.6036 4.92242 19.6628 5.02638 20.0355L6.17191 19.716ZM4.26461 19.2738C4.63732 19.3777 4.69653 19.4011 4.73829 19.4285L5.39008 18.4337C5.15729 18.2812 4.88147 18.2112 4.58413 18.1282L4.26461 19.2738ZM5.8664 18.9101C5.74204 18.7203 5.57989 18.5581 5.39008 18.4337L4.73829 19.4285C4.79144 19.4633 4.83684 19.5087 4.87166 19.5619L5.8664 18.9101ZM7.72819 21.2968C7.43733 21.3715 7.25339 21.4183 7.11131 21.4428C6.97621 21.4661 6.92998 21.4592 6.91317 21.4555L6.66116 22.6178C6.88903 22.6672 7.10588 22.6506 7.3134 22.6148C7.51395 22.5802 7.75219 22.5185 8.02425 22.4486L7.72819 21.2968ZM5.25319 20.8487C5.32866 21.1193 5.39434 21.3564 5.46467 21.5474C5.53744 21.745 5.63148 21.9411 5.78821 22.1138L6.66875 21.3144C6.65718 21.3017 6.62804 21.2651 6.58066 21.1365C6.53084 21.0012 6.47941 20.8185 6.39873 20.5292L5.25319 20.8487ZM6.91317 21.4555C6.81898 21.4351 6.73353 21.3858 6.66875 21.3144L5.78821 22.1138C6.01957 22.3686 6.32477 22.5448 6.66116 22.6178L6.91317 21.4555ZM10.7148 21.6678C10.4943 21.4517 10.2957 21.2479 10.0472 21.1226L9.51164 22.1844C9.55622 22.2069 9.60609 22.2464 9.88247 22.5172L10.7148 21.6678ZM8.84188 22.2384C9.21663 22.1421 9.27961 22.1328 9.32945 22.1356L9.39654 20.9482C9.11868 20.9325 8.8448 21.0097 8.54582 21.0866L8.84188 22.2384ZM10.0472 21.1226C9.84461 21.0204 9.62311 20.961 9.39654 20.9482L9.32945 22.1356C9.39289 22.1392 9.45491 22.1558 9.51164 22.1844L10.0472 21.1226ZM12.8529 22.2586C12.6384 22.4688 12.5025 22.6013 12.3917 22.6935C12.2864 22.7813 12.2428 22.7983 12.2265 22.8036L12.5893 23.9361C12.8114 23.865 12.9909 23.7422 13.1527 23.6074C13.3091 23.4772 13.4846 23.3046 13.6852 23.1081L12.8529 22.2586ZM10.4855 23.1081C10.6861 23.3046 10.8616 23.4772 11.018 23.6074C11.1798 23.7422 11.3593 23.865 11.5814 23.9361L11.9442 22.8036C11.9278 22.7983 11.8843 22.7813 11.779 22.6935C11.6682 22.6013 11.5323 22.4688 11.3178 22.2586L10.4855 23.1081ZM12.2265 22.8036C12.1347 22.833 12.036 22.833 11.9442 22.8036L11.5814 23.9361C11.9091 24.0412 12.2616 24.0412 12.5893 23.9361L12.2265 22.8036ZM15.6249 21.0866C15.3259 21.0097 15.052 20.9325 14.7742 20.9482L14.8412 22.1356C14.8911 22.1328 14.9541 22.1421 15.3288 22.2384L15.6249 21.0866ZM14.2882 22.5172C14.5646 22.2464 14.6145 22.2069 14.6591 22.1844L14.1235 21.1226C13.875 21.2479 13.6764 21.4517 13.4559 21.6678L14.2882 22.5172ZM14.7742 20.9482C14.5476 20.961 14.3261 21.0204 14.1235 21.1226L14.6591 22.1844C14.7158 22.1558 14.7778 22.1392 14.8412 22.1356L14.7742 20.9482ZM17.772 20.5292C17.6913 20.8185 17.6399 21.0012 17.59 21.1365C17.5427 21.2651 17.5135 21.3017 17.502 21.3144L18.3825 22.1138C18.5392 21.9411 18.6333 21.745 18.706 21.5474C18.7764 21.3564 18.842 21.1193 18.9175 20.8487L17.772 20.5292ZM16.1464 22.4486C16.4185 22.5185 16.6567 22.5802 16.8573 22.6148C17.0648 22.6506 17.2817 22.6672 17.5095 22.6178L17.2575 21.4555C17.2407 21.4592 17.1945 21.4661 17.0594 21.4428C16.9173 21.4183 16.7334 21.3715 16.4425 21.2968L16.1464 22.4486ZM17.502 21.3144C17.4372 21.3858 17.3517 21.4351 17.2575 21.4555L17.5095 22.6178C17.8459 22.5448 18.1511 22.3686 18.3825 22.1138L17.502 21.3144ZM19.5866 18.1282C19.2892 18.2112 19.0134 18.2812 18.7806 18.4337L19.4324 19.4285C19.4742 19.4011 19.5334 19.3777 19.9061 19.2738L19.5866 18.1282ZM19.1443 20.0355C19.2483 19.6628 19.2717 19.6036 19.299 19.5619L18.3043 18.9101C18.1518 19.1429 18.0817 19.4187 17.9988 19.716L19.1443 20.0355ZM18.7806 18.4337C18.5908 18.5581 18.4287 18.7203 18.3043 18.9101L19.299 19.5619C19.3339 19.5087 19.3793 19.4633 19.4324 19.4285L18.7806 18.4337ZM21.1673 16.572C21.2421 16.8628 21.2889 17.0468 21.3134 17.1888C21.3367 17.3239 21.3297 17.3702 21.3261 17.387L22.4883 17.639C22.5377 17.4111 22.5211 17.1943 22.4853 16.9868C22.4507 16.7862 22.389 16.548 22.3191 16.2759L21.1673 16.572ZM20.7192 19.047C20.9898 18.9715 21.227 18.9058 21.418 18.8355C21.6156 18.7627 21.8117 18.6687 21.9843 18.5119L21.1849 17.6314C21.1722 17.643 21.1357 17.6721 21.007 17.7195C20.8717 17.7693 20.689 17.8207 20.3997 17.9014L20.7192 19.047ZM21.3261 17.387C21.3056 17.4812 21.2563 17.5666 21.1849 17.6314L21.9843 18.5119C22.2392 18.2806 22.4154 17.9754 22.4883 17.639L21.3261 17.387ZM21.5383 13.5854C21.3223 13.8059 21.1184 14.0044 20.9931 14.2529L22.0549 14.7885C22.0774 14.7439 22.117 14.6941 22.3878 14.4177L21.5383 13.5854ZM22.109 15.4583C22.0126 15.0835 22.0033 15.0205 22.0061 14.9707L20.8187 14.9036C20.803 15.1815 20.8803 15.4554 20.9571 15.7543L22.109 15.4583ZM20.9931 14.2529C20.8909 14.4555 20.8315 14.677 20.8187 14.9036L22.0061 14.9707C22.0097 14.9073 22.0263 14.8452 22.0549 14.7885L20.9931 14.2529ZM22.1291 11.4472C22.3393 11.6617 22.4718 11.7976 22.5641 11.9084C22.6518 12.0138 22.6689 12.0573 22.6741 12.0737L23.8067 11.7108C23.7355 11.4888 23.6127 11.3093 23.478 11.1474C23.3477 10.991 23.1752 10.8156 22.9786 10.6149L22.1291 11.4472ZM22.9786 13.8147C23.1752 13.614 23.3477 13.4386 23.478 13.2822C23.6127 13.1203 23.7355 12.9409 23.8067 12.7188L22.6741 12.3559C22.6689 12.3723 22.6518 12.4158 22.5641 12.5212C22.4718 12.632 22.3393 12.7679 22.1291 12.9824L22.9786 13.8147ZM22.6741 12.0737C22.7035 12.1655 22.7035 12.2641 22.6741 12.3559L23.8067 12.7188C23.9117 12.391 23.9117 12.0386 23.8067 11.7108L22.6741 12.0737ZM20.9571 8.67527C20.8803 8.97425 20.803 9.24814 20.8187 9.526L22.0061 9.45891C22.0033 9.40906 22.0126 9.34608 22.109 8.97133L20.9571 8.67527ZM22.3878 10.0119C22.117 9.73555 22.0774 9.68567 22.0549 9.6411L20.9931 10.1767C21.1184 10.4252 21.3223 10.6237 21.5383 10.8442L22.3878 10.0119ZM20.8187 9.526C20.8315 9.75257 20.8909 9.97406 20.9931 10.1767L22.0549 9.6411C22.0263 9.58436 22.0097 9.52234 22.0061 9.45891L20.8187 9.526ZM20.3997 6.52818C20.689 6.60887 20.8717 6.6603 21.007 6.71012C21.1357 6.7575 21.1722 6.78664 21.1849 6.7982L21.9843 5.91767C21.8117 5.76094 21.6156 5.6669 21.418 5.59413C21.227 5.5238 20.9898 5.45812 20.7192 5.38265L20.3997 6.52818ZM22.3191 8.1537C22.389 7.88165 22.4508 7.64341 22.4853 7.44285C22.5211 7.23533 22.5377 7.01849 22.4883 6.79062L21.3261 7.04263C21.3297 7.05944 21.3367 7.10566 21.3134 7.24077C21.2889 7.38284 21.2421 7.56679 21.1673 7.85765L22.3191 8.1537ZM21.1849 6.7982C21.2563 6.86298 21.3056 6.94844 21.3261 7.04263L22.4883 6.79062C22.4154 6.45423 22.2392 6.14903 21.9843 5.91767L21.1849 6.7982ZM17.9988 4.71359C18.0817 5.01093 18.1518 5.28675 18.3043 5.51953L19.299 4.86775C19.2717 4.82599 19.2483 4.76678 19.1443 4.39407L17.9988 4.71359ZM19.9061 5.15584C19.5334 5.05188 19.4742 5.02848 19.4324 5.00112L18.7806 5.99586C19.0134 6.14839 19.2892 6.21843 19.5866 6.30137L19.9061 5.15584ZM18.3043 5.51953C18.4287 5.70934 18.5908 5.87149 18.7806 5.99586L19.4324 5.00112C19.3793 4.96629 19.3339 4.92089 19.299 4.86775L18.3043 5.51953ZM16.4425 3.13285C16.7334 3.05809 16.9173 3.01128 17.0594 2.98678C17.1945 2.96349 17.2407 2.97045 17.2575 2.97409L17.5095 1.81184C17.2817 1.76243 17.0648 1.77904 16.8573 1.81482C16.6567 1.8494 16.4185 1.91111 16.1464 1.98103L16.4425 3.13285ZM18.9175 3.5809C18.842 3.31033 18.7764 3.07316 18.706 2.88218C18.6333 2.68457 18.5392 2.48848 18.3825 2.31584L17.502 3.11521C17.5135 3.12795 17.5427 3.1645 17.59 3.29315C17.6399 3.42844 17.6913 3.61115 17.772 3.90042L18.9175 3.5809ZM17.2575 2.97409C17.3517 2.99451 17.4372 3.04385 17.502 3.11521L18.3825 2.31584C18.1511 2.06099 17.8459 1.88478 17.5095 1.81184L17.2575 2.97409ZM13.4559 2.76184C13.6764 2.97788 13.875 3.18172 14.1235 3.30706L14.6591 2.24522C14.6145 2.22274 14.5646 2.18316 14.2882 1.91237L13.4559 2.76184ZM15.3288 2.19119C14.9541 2.28752 14.8911 2.29686 14.8412 2.29404L14.7742 3.4814C15.052 3.4971 15.3259 3.41986 15.6249 3.34301L15.3288 2.19119ZM14.1235 3.30706C14.3261 3.40925 14.5476 3.4686 14.7742 3.4814L14.8412 2.29404C14.7778 2.29046 14.7158 2.27384 14.6591 2.24522L14.1235 3.30706ZM13.6852 1.32155C13.4846 1.12496 13.3091 0.952405 13.1527 0.822178C12.9909 0.687429 12.8114 0.564627 12.5893 0.49348L12.2265 1.62602C12.2428 1.63127 12.2864 1.64836 12.3917 1.73609C12.5025 1.82834 12.6384 1.96085 12.8529 2.17102L13.6852 1.32155ZM11.3178 2.17102C11.5323 1.96085 11.6682 1.82834 11.779 1.73609C11.8843 1.64836 11.9278 1.63127 11.9442 1.62602L11.5814 0.49348C11.3593 0.564627 11.1798 0.687429 11.018 0.822178C10.8616 0.952404 10.6861 1.12496 10.4855 1.32155L11.3178 2.17102ZM12.5893 0.49348C12.2616 0.388452 11.9091 0.388452 11.5814 0.49348L11.9442 1.62602C12.036 1.59662 12.1347 1.59662 12.2265 1.62602L12.5893 0.49348Z" fill="white"/>
</svg>
