<svg width="235" height="234" viewBox="0 0 235 234" fill="none" xmlns="http://www.w3.org/2000/svg">
<rect width="234" height="234" transform="translate(0.5)" fill="white"/>
<path fill-rule="evenodd" clip-rule="evenodd" d="M40.8745 14.1435C40.8845 14.9081 54.2622 32.2838 56.9995 35.0866C60.303 38.4696 57.9045 34.4887 50.6019 24.4682C43.5445 14.7841 40.8459 11.9194 40.8745 14.1435ZM135.961 19.5571C130.629 21.5397 128.427 24.6864 128.757 29.8549L128.963 33.0923L119.868 34.7473C90.5872 40.0748 79.4213 42.5535 75.1134 44.6823C67.1311 48.6275 60.823 57.0989 57.8553 67.86C55.0491 78.0343 54.9859 91.0161 57.595 121.095L58.5339 131.918L54.7279 138.116C46.8421 150.958 36.8123 171.101 34.3617 179.018C32.6026 184.701 32.5704 191.428 34.2816 195.811C37.7173 204.61 46.8784 211.641 63.2034 218.006C70.052 220.676 78.1975 221.339 83.8726 219.69C96.1137 216.131 106.012 207.048 119.601 186.905C125.801 177.714 128.515 173.044 134.185 161.816L138.879 152.519L147.056 150.701L155.232 148.883L155.342 178.307C155.416 198.042 155.667 208.381 156.103 209.703C156.907 212.139 158.925 213.525 161.667 213.525C164.432 213.525 166.428 212.135 167.253 209.637C167.721 208.219 167.952 198.11 168.014 176.403L168.102 145.206L175.415 143.024C183.802 140.52 215.75 129.429 222.059 126.832C227.6 124.549 229.235 122.653 229.235 118.506C229.235 114.762 227.69 92.6225 226.864 84.5325C223.781 54.3219 215.095 37.4312 197.567 27.5611C195.754 26.5409 192.414 25.3182 190.143 24.845C185.551 23.8873 181.002 24.2951 163.715 27.2119C159.049 27.9987 155.156 28.4205 155.064 28.1484C154.971 27.8764 154.162 26.4993 153.266 25.0883C150.081 20.0719 141.744 17.4073 135.961 19.5571ZM136.512 21.2507C133.419 22.4611 132.157 23.3947 131.253 25.1433C129.538 28.4608 130.384 33.3666 133.089 35.7757C134.053 36.635 134.77 36.6666 139.608 36.0606C145.576 35.3135 146.141 34.9227 146.156 31.5292C146.176 26.8035 139.394 23.6439 137.002 27.2645C136.284 28.3526 136.327 28.6609 137.374 29.897C138.486 31.2109 138.608 31.2343 139.355 30.2738C139.793 29.711 140.451 29.25 140.818 29.25C141.993 29.25 141.531 30.9477 140.101 31.8848C136.196 34.4431 132.877 28.1192 136.591 25.1977C139.451 22.9472 144.608 24.1675 146.773 27.6062C147.741 29.1441 147.933 30.1737 147.705 32.6138L147.419 35.685H149.669C153.287 35.685 153.77 35.2919 153.77 32.347C153.77 24.2085 144.381 18.1719 136.512 21.2507ZM181.557 26.1126C173.633 27.306 157.371 29.9666 156.548 30.2036C155.778 30.4259 155.525 31.1208 155.525 33.0157C155.525 35.4691 155.58 35.5411 157.718 35.8944C162.298 36.6514 164.084 36.356 166.055 34.515C167.832 32.8548 170.15 32.1534 170.15 33.2754C170.15 33.5591 169.228 34.4939 168.102 35.3527C165.677 37.2031 165.402 38.2444 167.555 37.4254C170.012 36.4911 174.83 36.6947 174.83 37.7325C174.83 38.3959 174.08 38.62 171.758 38.651C167.717 38.7054 166.823 39.1195 165.609 41.5034C163.804 45.0468 161.936 45.9348 156.497 45.8348C150.073 45.7172 139.038 44.1722 131.54 42.3411C122.977 40.2503 122.609 39.7127 128.615 38.0689L132.165 37.0972L130.829 35.8564L129.492 34.6156L112.095 37.9156L94.6986 41.2156L99.9279 42.4985C117.741 46.8679 130.134 61.8643 134.161 83.9224C135.87 93.2824 138.532 130.303 138.551 144.973C138.559 150.445 138.655 150.98 139.583 150.705C140.147 150.538 144.293 149.568 148.797 148.549C163.127 145.308 177.726 140.793 205.802 130.916C226.707 123.562 227.708 122.965 227.646 117.88C227.591 113.282 225.661 88.4988 224.8 81.325C222.256 60.1292 216.965 46.9094 207.065 37.0094C198.937 28.8809 189.615 24.8982 181.557 26.1126ZM19.8046 34.8163C19.8046 35.8921 21.5572 36.9995 30.5346 41.597C37.9279 45.3837 43.7896 47.6722 43.7896 46.7725C43.7896 46.4707 40.3761 44.5127 36.2039 42.4219C32.0317 40.3317 26.8936 37.5652 24.7859 36.2753C20.5978 33.7118 19.8046 33.4796 19.8046 34.8163ZM84.4635 43.2912C74.7291 45.045 67.22 50.9401 62.4833 60.5475C57.5207 70.6118 56.4408 80.5089 57.8541 102.96C58.4368 112.208 60.0766 130.59 60.3375 130.788C60.7786 131.122 103.145 119.263 103.488 118.709C103.722 118.33 104.204 118.199 104.558 118.419C105.128 118.771 119.012 115.407 122.358 114.107C123.064 113.832 126.235 112.99 129.405 112.236L135.167 110.865L134.789 105.304C134.265 97.585 134.026 96.6291 132.57 96.4144C130.688 96.1366 130.568 94.77 132.426 94.77H133.994L133.595 91.1138C130.904 66.5209 118.336 48.9317 100.073 44.1997C95.52 43.0197 88.3016 42.5997 84.4635 43.2912ZM120.214 64.7186C119.122 65.3094 118.74 65.8242 119.113 66.1974C119.854 66.9386 124.164 65.1953 123.65 64.3623C123.146 63.5468 122.194 63.6457 120.214 64.7186ZM113.551 67.4037C112.144 68.0829 111.884 68.7445 112.803 69.312C113.425 69.6969 116.623 68.2198 117.205 67.2791C117.683 66.5052 115.241 66.5888 113.551 67.4037ZM107.689 70.0567C105.676 71.0582 105.433 72.3832 107.323 72.055C109.001 71.7637 111.147 70.2222 110.756 69.5893C110.308 68.8645 109.986 68.9136 107.689 70.0567ZM101.558 72.8758C100.227 73.5971 99.2628 75.465 100.222 75.465C101.17 75.465 104.617 73.3789 104.458 72.9015C104.143 71.9573 103.269 71.9492 101.558 72.8758ZM94.8308 76.1787C93.4982 76.8216 92.9998 78.39 94.1288 78.39C95.1695 78.39 98.1946 76.6379 98.1946 76.0348C98.1946 75.2983 96.508 75.3702 94.8308 76.1787ZM88.9024 79.601C87.5593 80.4205 87.1147 80.9991 87.5195 81.4039C88.304 82.1884 91.7596 80.4358 91.7596 79.2523C91.7596 78.1045 91.2571 78.166 88.9024 79.601ZM82.8383 82.8196C81.9538 83.2999 81.2296 84.0791 81.2296 84.5512C81.2296 85.6885 81.7344 85.6329 84.0083 84.2464C87.2001 82.3001 86.1524 81.0219 82.8383 82.8196ZM77.7377 86.6531C77.7482 87.0954 78.4099 87.9331 79.209 88.5146C80.5481 89.4898 80.7347 89.4986 81.6098 88.6234C82.7681 87.4651 82.158 86.7362 79.6027 86.2255C78.2086 85.9465 77.7243 86.0576 77.7377 86.6531ZM84.2979 89.0575C84.5898 89.9332 88.0981 91.0219 88.6977 90.4223C88.9329 90.1871 88.6146 89.6208 87.9904 89.1645C86.5765 88.1308 83.9639 88.0548 84.2979 89.0575ZM19.5121 91.5823C7.51197 92.6242 5.76457 92.922 5.76457 93.9282C5.76457 94.9847 4.96897 95.021 19.5121 93.304C26.2688 92.5066 32.2581 91.852 32.8208 91.8497C33.3836 91.8468 33.8446 91.5818 33.8446 91.26C33.8446 90.5364 30.7663 90.606 19.5121 91.5823ZM81.8146 91.0816C81.8146 91.6619 84.8648 94.77 85.434 94.77C86.3735 94.77 85.8833 93.194 84.5559 91.9468C83.2385 90.7095 81.8146 90.2602 81.8146 91.0816ZM90.5896 91.16C90.5896 91.9175 95.1005 93.3789 95.6732 92.8067C96.3454 92.134 94.9794 91.2343 92.733 90.8698C91.3624 90.6475 90.5896 90.7522 90.5896 91.16ZM97.8646 93.0758C97.3118 93.9703 98.2232 94.6881 100.485 95.1403C101.995 95.4422 102.386 95.3503 102.182 94.739C101.803 93.6023 98.359 92.2756 97.8646 93.0758ZM126.266 94.3313C126.262 94.7337 126.1 95.6545 125.906 96.3788C125.646 97.3463 125.804 97.695 126.499 97.695C127.019 97.695 127.445 97.3323 127.445 96.8889C127.445 96.446 127.837 95.7581 128.316 95.3603C128.795 94.9625 129.042 94.4038 128.866 94.1189C128.378 93.3286 126.276 93.5006 126.266 94.3313ZM104.045 95.8458C104.045 96.4297 106.665 97.695 107.875 97.695C109.09 97.695 108.924 96.673 107.593 95.9605C106.232 95.2322 104.045 95.1614 104.045 95.8458ZM86.5139 96.6713C86.5402 97.6476 88.5649 100.035 89.3669 100.035C90.3322 100.035 90.0976 98.7305 88.8673 97.2563C87.6652 95.8148 86.4835 95.5211 86.5139 96.6713ZM110.48 98.2724C110.48 99.0031 114.521 100.722 115.222 100.289C116.213 99.677 115.74 98.9779 113.902 98.3373C111.619 97.5412 110.48 97.5195 110.48 98.2724ZM124.806 101.829C124.585 103.138 124.566 104.371 124.764 104.569C125.382 105.188 126.167 103.929 126.586 101.644C126.909 99.8923 126.81 99.45 126.099 99.45C125.512 99.45 125.07 100.264 124.806 101.829ZM117.222 100.595C116.841 101.212 119.835 102.96 121.273 102.96C122.886 102.96 122.235 101.753 120.151 100.883C117.75 99.8794 117.67 99.8718 117.222 100.595ZM90.9388 101.698C90.486 102.431 92.6441 105.885 93.5544 105.885C94.5413 105.885 94.1242 104.224 92.7307 102.604C91.7999 101.522 91.2266 101.232 90.9388 101.698ZM123.718 107.786C123.189 109.764 123.279 111.735 123.9 111.735C124.647 111.735 124.883 111.231 125.347 108.664C125.653 106.968 125.553 106.47 124.907 106.47C124.447 106.47 123.912 107.062 123.718 107.786ZM95.0198 107.571C94.7519 108.004 95.1889 108.751 97.4358 111.696C97.5423 111.836 97.915 111.664 98.2642 111.314C98.7211 110.858 98.5228 110.171 97.5593 108.867C96.174 106.994 95.5679 106.684 95.0198 107.571ZM129.67 113.996C124.872 115.265 123.946 115.703 123.663 116.833C123.478 117.569 122.92 118.17 122.422 118.17C121.81 118.17 121.626 117.822 121.855 117.102C122.16 116.14 121.407 116.242 114.317 118.126C106.859 120.106 106.457 120.288 106.768 121.534C107.161 123.11 105.982 123.323 104.919 121.868C104.26 120.969 102.483 121.347 83.6597 126.386C72.3627 129.41 63.4432 132.066 63.8399 132.288C66.5771 133.82 114.973 146.213 130.756 149.424L137.285 150.752L137.046 145.43C136.138 125.293 135.518 112.604 135.437 112.553C135.385 112.521 132.79 113.17 129.67 113.996ZM99.7811 114.804C100.825 116.592 102.875 117.739 102.875 116.537C102.875 115.543 100.468 112.905 99.5606 112.905C98.8106 112.905 98.8451 113.202 99.7811 114.804ZM150.113 115.563C148.854 116.889 150.037 135.081 151.479 136.571C152.299 137.418 155.339 137.044 167.804 134.561C178.297 132.472 196.335 127.687 198.904 126.312C200.506 125.454 200.326 122.516 198.603 121.387C195.754 119.52 172.372 116.062 158.45 115.448C154.106 115.257 150.355 115.308 150.113 115.563ZM152.089 116.904L150.701 117.1L151.117 123.632C151.517 129.905 152.191 134.921 152.701 135.432C152.834 135.564 153.486 135.532 154.15 135.358C155.252 135.07 155.31 134.807 154.828 132.31C154.538 130.807 154.116 126.682 153.889 123.143C153.483 116.801 153.457 116.71 152.089 116.904ZM29.7414 124.936C26.0459 127.37 20.8517 130.594 18.1999 132.102C13.5591 134.739 12.1656 136.305 14.4588 136.305C16.6146 136.305 37.3546 122.496 37.3546 121.061C37.3546 120.049 36.5011 120.484 29.7414 124.936ZM120.79 122.338C120.277 124.907 120.32 125.19 121.229 125.19C121.906 125.19 122.765 122.859 122.765 121.022C122.765 119.641 121.109 120.744 120.79 122.338ZM132.271 123.829C130.828 124.836 130.502 126.36 131.73 126.36C132.517 126.36 135.05 123.987 135.05 123.251C135.05 122.573 133.656 122.863 132.271 123.829ZM107.555 124.612C107.555 124.992 108.113 126.087 108.797 127.046C109.682 128.289 110.219 128.61 110.667 128.162C111.115 127.714 110.958 127.081 110.12 125.96C108.817 124.214 107.555 123.551 107.555 124.612ZM119.63 128.237C119.087 130.263 119.184 132.21 119.828 132.21C120.365 132.21 120.753 131.104 121.139 128.468C121.376 126.856 120.054 126.654 119.63 128.237ZM126.961 128.299C125.708 129.634 125.272 131.058 126.128 131.021C126.855 130.991 129.785 128.216 129.785 127.558C129.785 126.497 128.285 126.891 126.961 128.299ZM111.669 130.601C111.695 131.578 113.72 133.965 114.522 133.965C115.426 133.965 115.312 132.987 114.215 131.312C113.222 129.797 111.636 129.354 111.669 130.601ZM121.696 132.979C120.262 134.506 120.042 135.72 121.2 135.72C122.142 135.72 124.52 133.283 124.52 132.319C124.52 131.186 123.061 131.527 121.696 132.979ZM57.0703 137.621C48.0893 152.076 37.4634 173.703 35.4703 181.586C32.182 194.589 38.1367 204.001 54.8911 212.285C67.7289 218.634 73.8393 220.102 81.0775 218.578C91.9228 216.293 100.933 209.287 112.027 194.513C119.561 184.48 124.981 175.598 132.532 160.911L136.875 152.464L126.456 150.226C112.342 147.195 93.2911 142.418 75.6721 137.493C67.6283 135.244 60.7452 133.399 60.3767 133.392C60.0075 133.385 58.5199 135.288 57.0703 137.621ZM39.2283 141.826C32.7927 148.913 31.0237 151.515 32.6424 151.515C33.2806 151.515 35.857 148.788 42.5465 141.031C46.8661 136.022 48.1145 133.965 46.8333 133.965C46.5771 133.965 43.1549 137.503 39.2283 141.826ZM118.085 134.882C118.085 135.533 117.745 135.691 116.915 135.428C115.545 134.993 115.372 136.058 116.559 137.621C117.991 139.508 118.853 138.998 119.525 135.866C119.85 134.352 119.745 133.965 119.008 133.965C118.501 133.965 118.085 134.377 118.085 134.882Z" fill="black"/>
</svg>
