<svg width="234" height="215" viewBox="0 0 234 215" fill="none" xmlns="http://www.w3.org/2000/svg">
<rect width="234" height="215" fill="white"/>
<path fill-rule="evenodd" clip-rule="evenodd" d="M153.607 199.009C198.007 199.009 234 174.856 234 145.063C234 115.269 198.007 91.1163 153.607 91.1163C133.205 91.1163 114.577 96.2163 100.402 104.62C94.7235 107.987 87.8252 108.902 81.3706 107.524C77.168 106.628 72.6916 106.144 68.0466 106.144C43.7853 106.144 24.1178 119.342 24.1178 135.622C24.1178 136.671 23.4942 137.639 22.5134 138.007C9.08087 143.05 0 152.689 0 163.751C0 177.923 14.9025 189.758 34.7652 192.587C39.5759 193.272 44.1109 195.353 47.8798 198.423C60.3077 208.546 79.1325 215 100.204 215C120.098 215 137.991 209.246 150.386 200.084C151.32 199.394 152.446 199.009 153.607 199.009Z" fill="#F0F0F0"/>
<path fill-rule="evenodd" clip-rule="evenodd" d="M138.067 11.9013C139.446 12.6885 141.45 13.8143 143.208 13.5943C143.425 13.5563 143.631 13.4689 143.809 13.3387C143.987 13.2085 144.133 13.0391 144.235 12.8436C144.337 12.648 144.393 12.4315 144.399 12.2109C144.404 11.9903 144.358 11.7714 144.265 11.5712C143.775 10.5404 143.037 9.64742 142.118 8.97241V8.7608C143.809 8.2275 146.117 7.33022 145.356 5.73037C145.154 5.27326 144.798 4.90176 144.35 4.68072C142.49 3.77496 139.953 4.4437 138.093 4.93467C136.486 5.36636 134.981 5.58645 134.465 6.89005C133.476 9.25177 135.641 10.513 138.067 11.9013ZM144.527 5.46794C145.965 6.79695 143.547 7.6773 142.642 8.00741C142.499 8.05602 142.352 8.09281 142.202 8.11747C142.234 7.55295 142.095 6.99197 141.804 6.50739C141.513 6.0228 141.083 5.63707 140.57 5.40022C140.092 5.30824 139.61 5.24325 139.124 5.20554C140.587 4.90926 143.428 4.4437 144.527 5.46794ZM139.412 11.5034C139.989 11.5097 140.551 11.3234 141.011 10.9739C141.47 10.6244 141.8 10.1316 141.949 9.57343C142.688 10.1278 143.292 10.8426 143.716 11.6643C143.944 12.1214 143.843 13.0271 143.183 13.0525C141.357 12.9777 139.593 12.3685 138.11 11.3003C138.538 11.4031 138.973 11.471 139.412 11.5034ZM122.044 43.6191C122.634 43.7922 123.202 44.0336 123.735 44.3389C123.751 44.3532 123.769 44.3645 123.789 44.3719C123.809 44.3794 123.83 44.3826 123.851 44.382C123.872 44.3811 123.893 44.3762 123.912 44.3673C123.932 44.3584 123.949 44.3458 123.964 44.3302C123.978 44.3147 123.989 44.2966 123.997 44.2765C124.004 44.2567 124.008 44.2354 124.007 44.2144C124.006 44.1931 124.001 44.1722 123.992 44.1529C123.983 44.1336 123.971 44.1161 123.955 44.1017C123.62 43.5864 123.136 43.1851 122.568 42.9506C122.087 42.739 121.568 42.6298 121.042 42.6298C120.517 42.6298 119.997 42.739 119.516 42.9506L119.296 43.0776C118.56 43.6531 120.505 43.1707 122.044 43.6191ZM103.053 67.6511C103.607 67.2686 103.992 66.6862 104.127 66.026C104.132 65.903 104.097 65.7814 104.027 65.6805C103.957 65.5793 103.855 65.5043 103.738 65.4672C103.222 65.3571 102.486 65.9835 102.275 66.7707C102.14 67.3042 102.41 68.0912 103.053 67.6511ZM97.523 76.2937C98.1219 75.9838 98.5767 75.4524 98.7912 74.8125C98.8122 74.6918 98.7926 74.5676 98.7364 74.459C98.6798 74.3503 98.5891 74.2635 98.4785 74.2115C97.9795 74.0336 97.1679 74.5584 96.8635 75.3204C96.6519 75.8367 96.821 76.6579 97.523 76.2937ZM137.493 70.6985C137.407 70.6324 137.299 70.6028 137.192 70.6163C137.085 70.6295 136.988 70.6853 136.922 70.7704C136.856 70.8557 136.826 70.9638 136.839 71.071C136.853 71.1782 136.908 71.2757 136.994 71.3418C137.231 71.5352 137.493 71.6973 137.772 71.8244C137.821 71.8442 137.874 71.8546 137.927 71.854C137.98 71.8534 138.033 71.8425 138.082 71.8218C138.131 71.8008 138.176 71.7706 138.213 71.7327C138.251 71.6945 138.28 71.6496 138.3 71.5999C138.32 71.5505 138.33 71.4976 138.329 71.4444C138.329 71.3909 138.318 71.338 138.297 71.2892C138.277 71.24 138.246 71.1955 138.208 71.1578C138.17 71.1205 138.125 71.0909 138.076 71.071C137.867 70.9719 137.671 70.8468 137.493 70.6985ZM134.635 67.4818C134.587 67.5051 134.544 67.5379 134.509 67.5778C134.475 67.6181 134.448 67.6646 134.432 67.7152C134.415 67.7658 134.409 67.819 134.413 67.8719C134.417 67.9251 134.432 67.9765 134.457 68.0237C134.584 68.2861 134.719 68.5229 134.846 68.7517C134.904 68.8322 134.991 68.8885 135.088 68.9098C135.186 68.9308 135.287 68.9153 135.374 68.8661C135.461 68.817 135.527 68.7376 135.558 68.6431C135.591 68.5485 135.587 68.4456 135.548 68.3536C135.421 68.1337 135.294 67.9052 135.176 67.6595C135.127 67.5649 135.043 67.4931 134.941 67.4597C134.84 67.4264 134.73 67.4344 134.635 67.4818ZM133.29 64.934C133.327 65.0263 133.397 65.1016 133.486 65.1459C133.575 65.1901 133.677 65.2002 133.773 65.174C133.869 65.1482 133.952 65.0875 134.006 65.0045C134.061 64.9211 134.083 64.8208 134.068 64.7222C133.992 64.4684 133.924 64.2143 133.865 63.9519C133.855 63.8973 133.834 63.8452 133.804 63.799C133.773 63.7527 133.733 63.7133 133.686 63.6831C133.64 63.6529 133.587 63.6325 133.533 63.6233C133.478 63.6141 133.422 63.6162 133.368 63.6297C133.314 63.6429 133.264 63.667 133.22 63.7009C133.175 63.7346 133.139 63.7768 133.111 63.8254C133.084 63.8737 133.067 63.9274 133.062 63.9826C133.056 64.0378 133.062 64.0936 133.079 64.1468C133.146 64.4175 133.214 64.6799 133.29 64.934ZM131.979 59.6688C131.873 59.6795 131.775 59.7318 131.707 59.814C131.639 59.8965 131.606 60.0025 131.616 60.1089C131.616 60.3035 131.684 60.7269 131.709 60.9554C131.714 61.0086 131.73 61.06 131.755 61.1071C131.781 61.154 131.816 61.1951 131.858 61.2284C131.899 61.2615 131.947 61.2859 131.999 61.3003C132.05 61.3144 132.104 61.3181 132.157 61.3109C132.262 61.2963 132.357 61.2411 132.421 61.1572C132.486 61.0735 132.516 60.9675 132.504 60.8623C132.504 60.659 132.436 60.2782 132.419 60.075C132.418 60.0192 132.406 59.964 132.383 59.9129C132.36 59.8617 132.327 59.816 132.286 59.7781C132.245 59.7401 132.196 59.7108 132.144 59.6921C132.091 59.6731 132.035 59.6654 131.979 59.6688ZM132.351 57.0532C132.427 56.8077 132.504 56.5789 132.588 56.3421C132.607 56.2949 132.617 56.2444 132.616 56.1935C132.615 56.1426 132.604 56.0923 132.584 56.046C132.563 55.9995 132.533 55.9575 132.496 55.9224C132.46 55.8876 132.416 55.8603 132.368 55.8425C132.273 55.8066 132.167 55.8095 132.074 55.8506C131.981 55.8917 131.907 55.9678 131.87 56.0627C131.768 56.3168 131.684 56.5706 131.607 56.833C131.587 56.929 131.603 57.0296 131.653 57.1144C131.703 57.1992 131.783 57.2616 131.877 57.2895C131.972 57.3173 132.073 57.3084 132.161 57.2647C132.249 57.2208 132.317 57.1452 132.351 57.0532ZM125.41 48.2497C125.504 48.2894 125.61 48.2902 125.705 48.2523C125.8 48.2141 125.876 48.1402 125.917 48.0465C126.018 47.818 126.12 47.5895 126.238 47.3693C126.286 47.2782 126.296 47.1721 126.266 47.0738C126.236 46.9752 126.168 46.893 126.077 46.8444C125.986 46.7987 125.881 46.7898 125.783 46.8197C125.685 46.8499 125.603 46.9163 125.553 47.0051C125.426 47.2509 125.308 47.4877 125.207 47.7418C125.167 47.8361 125.166 47.9421 125.204 48.0373C125.242 48.1324 125.316 48.2086 125.41 48.2497ZM120.886 45.9896C120.981 45.7582 121.088 45.532 121.207 45.3121C121.236 45.267 121.255 45.2161 121.264 45.1629C121.272 45.1101 121.269 45.0557 121.255 45.0037C121.242 44.9517 121.217 44.9031 121.184 44.8609C121.151 44.8189 121.109 44.7841 121.061 44.7588C121.014 44.7338 120.962 44.7186 120.908 44.7146C120.855 44.7105 120.801 44.7177 120.75 44.7352C120.7 44.7531 120.653 44.7812 120.614 44.818C120.575 44.8545 120.543 44.8988 120.522 44.9482C120.395 45.1937 120.277 45.4308 120.175 45.6763C120.151 45.7234 120.136 45.7755 120.132 45.8286C120.128 45.8818 120.135 45.9353 120.153 45.9856C120.17 46.0359 120.198 46.0822 120.234 46.1212C120.27 46.1606 120.314 46.192 120.363 46.2135C120.412 46.2348 120.464 46.2463 120.518 46.2466C120.571 46.2466 120.624 46.2359 120.673 46.215C120.722 46.194 120.766 46.1632 120.803 46.1244C120.839 46.0856 120.868 46.0396 120.886 45.9896ZM135.683 52.3465C135.642 52.3126 135.595 52.287 135.544 52.2715C135.493 52.2562 135.44 52.251 135.387 52.2565C135.335 52.262 135.283 52.2781 135.237 52.3036C135.19 52.3295 135.149 52.364 135.116 52.406C134.947 52.6259 134.778 52.8377 134.618 53.0662C134.569 53.1539 134.554 53.2562 134.577 53.3539C134.599 53.4517 134.657 53.5376 134.739 53.5951C134.82 53.6529 134.921 53.6784 135.02 53.6667C135.119 53.6549 135.211 53.6069 135.277 53.5316C135.429 53.3286 135.581 53.1168 135.751 52.9052C135.783 52.8641 135.807 52.817 135.821 52.7667C135.835 52.7164 135.839 52.6638 135.832 52.6118C135.826 52.56 135.81 52.51 135.784 52.4643C135.758 52.4189 135.724 52.379 135.683 52.3465ZM138.558 49.5193C138.521 49.4816 138.477 49.4517 138.428 49.4313C138.379 49.4109 138.327 49.4006 138.275 49.4006C138.222 49.4006 138.17 49.4109 138.121 49.4313C138.072 49.4517 138.028 49.4816 137.991 49.5193L137.374 50.0611C137.337 50.0982 137.307 50.1421 137.286 50.191C137.266 50.2396 137.255 50.2919 137.255 50.3448C137.255 50.3974 137.266 50.4497 137.286 50.4983C137.307 50.5471 137.337 50.5911 137.374 50.6282C137.411 50.6659 137.455 50.6957 137.504 50.7162C137.553 50.7366 137.604 50.7469 137.657 50.7469C137.71 50.7469 137.762 50.7366 137.811 50.7162C137.859 50.6957 137.904 50.6659 137.941 50.6282L138.541 50.1033C138.582 50.0674 138.616 50.0232 138.639 49.9734C138.663 49.924 138.675 49.8699 138.677 49.8151C138.679 49.7602 138.669 49.7055 138.648 49.6547C138.628 49.6038 138.597 49.5578 138.558 49.5193ZM141.247 47.0307C141.027 47.1747 140.799 47.327 140.579 47.4877C140.491 47.5484 140.431 47.6412 140.412 47.7461C140.394 47.8507 140.417 47.9588 140.477 48.0465C140.538 48.1339 140.631 48.1939 140.735 48.2129C140.84 48.2319 140.948 48.2086 141.035 48.1479L141.695 47.6993C141.747 47.674 141.793 47.6375 141.829 47.5926C141.866 47.5478 141.893 47.4958 141.908 47.4397C141.923 47.3837 141.926 47.3253 141.916 47.2681C141.907 47.2109 141.885 47.1563 141.853 47.1083C141.821 47.06 141.779 47.0195 141.729 46.989C141.68 46.9585 141.625 46.939 141.568 46.9315C141.51 46.9243 141.452 46.9292 141.396 46.9465C141.341 46.9634 141.29 46.9922 141.247 47.0307ZM144.739 44.9482L144.029 45.3377C143.976 45.3601 143.929 45.3932 143.89 45.4351C143.851 45.4771 143.821 45.5268 143.803 45.5812C143.785 45.6355 143.778 45.693 143.783 45.7499C143.789 45.8068 143.806 45.862 143.834 45.9117C143.862 45.9617 143.901 46.0048 143.947 46.0388C143.993 46.0727 144.045 46.0965 144.101 46.1086C144.157 46.121 144.215 46.121 144.271 46.1092C144.327 46.0974 144.38 46.0738 144.426 46.0402C144.654 45.9048 144.891 45.7778 145.119 45.6593C145.167 45.6343 145.208 45.6004 145.243 45.5593C145.277 45.5179 145.302 45.4705 145.318 45.4193C145.334 45.3682 145.339 45.3144 145.334 45.2612C145.329 45.2081 145.314 45.1563 145.289 45.1092C145.264 45.0618 145.23 45.0198 145.188 44.9859C145.147 44.952 145.099 44.9267 145.048 44.9117C144.997 44.8968 144.943 44.8922 144.89 44.8985C144.837 44.9048 144.785 44.9218 144.739 44.9482ZM147.986 44.2457L148.721 43.9241C148.814 43.8775 148.886 43.7974 148.921 43.6999C148.957 43.6022 148.954 43.4947 148.913 43.3993C148.872 43.3041 148.796 43.2279 148.7 43.1871C148.605 43.146 148.498 43.1432 148.4 43.1791L147.656 43.5093C147.571 43.5602 147.507 43.641 147.477 43.7358C147.447 43.8307 147.453 43.9333 147.494 44.0241C147.535 44.115 147.607 44.1877 147.698 44.2285C147.789 44.2693 147.891 44.2756 147.986 44.2457ZM151.114 42.3918C151.165 42.4852 151.249 42.5551 151.35 42.5867C151.452 42.6183 151.561 42.6091 151.656 42.5611L152.374 42.1803C152.468 42.1285 152.538 42.0414 152.568 41.9382C152.598 41.8353 152.586 41.7244 152.535 41.6301C152.482 41.5376 152.395 41.4691 152.292 41.4392C152.19 41.4094 152.08 41.42 151.985 41.4691L151.284 41.85C151.19 41.9006 151.121 41.9854 151.089 42.0865C151.057 42.1877 151.067 42.2972 151.114 42.3918ZM154.708 39.7848C154.621 39.8477 154.562 39.942 154.543 40.0478C154.524 40.1536 154.547 40.2625 154.607 40.3519C154.668 40.4384 154.761 40.4973 154.865 40.5163C154.969 40.5353 155.077 40.5129 155.165 40.4534C155.393 40.301 155.613 40.1403 155.833 39.9794C155.904 39.9115 155.949 39.8199 155.958 39.7215C155.967 39.6232 155.94 39.5249 155.882 39.445C155.824 39.3651 155.739 39.3094 155.643 39.2875C155.546 39.266 155.446 39.2801 155.359 39.3275C155.148 39.4968 154.928 39.6491 154.708 39.7848ZM158.42 36.7966L157.837 37.3384C157.768 37.4129 157.73 37.5103 157.729 37.6115C157.729 37.7127 157.766 37.8104 157.834 37.8857C157.901 37.961 157.995 38.0082 158.095 38.0179C158.196 38.028 158.297 37.9998 158.378 37.9395L158.97 37.3807C159.008 37.3445 159.039 37.3011 159.06 37.2531C159.082 37.2051 159.094 37.1533 159.095 37.1004C159.097 37.0478 159.088 36.9955 159.07 36.9461C159.051 36.8969 159.023 36.8518 158.987 36.8136C158.95 36.7751 158.907 36.7443 158.859 36.7228C158.811 36.7012 158.76 36.6891 158.707 36.6877C158.654 36.686 158.602 36.6949 158.553 36.7136C158.503 36.7322 158.458 36.7604 158.42 36.7966ZM160.635 35.0444C160.676 35.0784 160.723 35.1039 160.774 35.1195C160.825 35.1347 160.878 35.1399 160.931 35.1344C160.984 35.1289 161.035 35.1128 161.082 35.0873C161.128 35.0617 161.169 35.0269 161.202 34.9852C161.379 34.7734 161.549 34.5618 161.718 34.3417C161.75 34.3 161.773 34.2526 161.786 34.202C161.8 34.1514 161.803 34.0985 161.795 34.0465C161.789 33.9947 161.771 33.9447 161.745 33.8996C161.719 33.8542 161.683 33.8148 161.642 33.7832C161.557 33.7197 161.45 33.6912 161.345 33.7039C161.239 33.7165 161.143 33.7691 161.075 33.8507C160.914 34.0623 160.754 34.2741 160.585 34.477C160.517 34.5595 160.485 34.665 160.494 34.7711C160.504 34.8772 160.554 34.9755 160.635 35.0444ZM162.952 31.7516C163.046 31.8028 163.157 31.8148 163.26 31.7847C163.363 31.7545 163.45 31.6846 163.502 31.5906C163.629 31.3535 163.756 31.108 163.874 30.8626C163.898 30.8151 163.913 30.7631 163.916 30.7097C163.92 30.6565 163.913 30.6027 163.896 30.5521C163.879 30.5016 163.851 30.455 163.815 30.4153C163.78 30.3757 163.736 30.3435 163.688 30.321C163.641 30.2966 163.59 30.2822 163.537 30.2788C163.484 30.2751 163.431 30.282 163.382 30.2995C163.332 30.317 163.286 30.3443 163.247 30.38C163.208 30.4156 163.177 30.459 163.155 30.507L162.791 31.2098C162.766 31.2558 162.75 31.3064 162.745 31.3587C162.739 31.411 162.744 31.4639 162.759 31.5142C162.774 31.5645 162.799 31.6113 162.832 31.6522C162.865 31.693 162.906 31.7266 162.952 31.7516ZM164.533 28.0523C164.638 28.0757 164.747 28.0579 164.838 28.0027C164.929 27.9475 164.996 27.8592 165.024 27.7561C165.083 27.4852 165.142 27.2143 165.193 26.9096C165.21 26.8043 165.187 26.6964 165.127 26.6081C165.067 26.5198 164.976 26.458 164.872 26.4355C164.765 26.4181 164.656 26.4429 164.568 26.5045C164.48 26.5661 164.419 26.6598 164.398 26.7656C164.356 27.0196 164.297 27.2735 164.237 27.5275C164.22 27.5814 164.213 27.6384 164.218 27.6949C164.224 27.7515 164.241 27.8062 164.269 27.8557C164.297 27.9051 164.335 27.9482 164.38 27.982C164.426 28.0159 164.478 28.0399 164.533 28.0523ZM164.559 23.7014C164.562 23.7544 164.576 23.8063 164.599 23.8539C164.623 23.9015 164.656 23.944 164.696 23.9787C164.736 24.0134 164.783 24.0397 164.833 24.0561C164.884 24.0724 164.937 24.0784 164.99 24.0738C165.096 24.0652 165.195 24.015 165.264 23.9343C165.334 23.8535 165.369 23.7485 165.362 23.6421C165.362 23.3628 165.303 23.0834 165.269 22.7956C165.262 22.7431 165.244 22.6926 165.217 22.647C165.19 22.6014 165.154 22.5617 165.112 22.5302C165.069 22.4986 165.021 22.4759 164.97 22.4633C164.918 22.4508 164.865 22.4486 164.813 22.457C164.707 22.4738 164.612 22.5307 164.548 22.6159C164.483 22.701 164.454 22.8079 164.466 22.9141C164.508 23.1681 164.533 23.422 164.559 23.7014ZM163.595 19.9345C163.641 20.0322 163.723 20.1082 163.824 20.1461C163.925 20.1841 164.037 20.181 164.136 20.1376C164.232 20.0918 164.305 20.0103 164.342 19.9106C164.378 19.811 164.374 19.7011 164.33 19.6043C164.212 19.3504 164.085 19.0964 163.95 18.851C163.898 18.7578 163.812 18.689 163.71 18.6596C163.607 18.6302 163.498 18.6427 163.404 18.6944C163.311 18.746 163.243 18.8325 163.214 18.9349C163.184 19.0373 163.197 19.1472 163.248 19.2404C163.375 19.4689 163.485 19.7059 163.595 19.9345ZM161.396 16.7432C161.433 16.781 161.477 16.8112 161.525 16.8321C161.573 16.853 161.625 16.8641 161.678 16.8649C161.731 16.8657 161.783 16.8561 161.832 16.8367C161.88 16.8172 161.925 16.7884 161.963 16.7517C162.001 16.715 162.031 16.6712 162.052 16.6229C162.073 16.5745 162.084 16.5225 162.084 16.4698C162.085 16.4172 162.076 16.3649 162.056 16.3159C162.037 16.267 162.008 16.2223 161.972 16.1845C161.785 15.9898 161.591 15.7951 161.379 15.6089C161.341 15.5733 161.295 15.5458 161.246 15.5278C161.196 15.5098 161.143 15.5018 161.091 15.5042C161.038 15.5065 160.987 15.5192 160.939 15.5416C160.891 15.5639 160.849 15.5954 160.813 15.6343C160.777 15.6732 160.75 15.7188 160.732 15.7683C160.714 15.8179 160.706 15.8705 160.708 15.9231C160.711 15.9758 160.723 16.0275 160.746 16.0752C160.768 16.123 160.799 16.1659 160.838 16.2014L161.396 16.7432ZM157.659 13.8736C157.887 14.009 158.116 14.1445 158.335 14.2884C158.38 14.3217 158.432 14.3455 158.486 14.358C158.541 14.3706 158.597 14.3718 158.652 14.3615C158.707 14.3512 158.759 14.3296 158.805 14.2981C158.852 14.2667 158.891 14.226 158.921 14.1786C158.951 14.1313 158.97 14.0782 158.979 14.0229C158.987 13.9675 158.984 13.911 158.969 13.857C158.955 13.8029 158.929 13.7524 158.894 13.7086C158.86 13.6649 158.816 13.6288 158.767 13.6027L158.065 13.1795C157.973 13.1267 157.863 13.1122 157.761 13.1391C157.658 13.166 157.57 13.2322 157.515 13.3234C157.463 13.4157 157.448 13.525 157.475 13.6279C157.502 13.7307 157.568 13.819 157.659 13.8736ZM154.091 12.1383L154.826 12.4515C154.924 12.4874 155.031 12.4845 155.127 12.4436C155.222 12.4026 155.298 12.3266 155.339 12.2312C155.38 12.1359 155.383 12.0283 155.348 11.9308C155.312 11.8332 155.241 11.753 155.148 11.7066L154.395 11.3934C154.345 11.3642 154.289 11.3461 154.231 11.3403C154.174 11.3345 154.115 11.3412 154.06 11.3599C154.005 11.3786 153.955 11.4089 153.913 11.4487C153.871 11.4885 153.837 11.537 153.815 11.5907C153.794 11.6445 153.783 11.7024 153.786 11.7605C153.788 11.8185 153.802 11.8754 153.829 11.9273C153.855 11.9792 153.891 12.0249 153.937 12.0613C153.982 12.0977 154.034 12.1239 154.091 12.1383ZM150.319 10.8432L151.089 11.0802C151.191 11.1092 151.301 11.0972 151.394 11.0466C151.487 10.9959 151.557 10.9108 151.588 10.8093C151.605 10.7593 151.611 10.7064 151.607 10.6538C151.603 10.6012 151.588 10.55 151.564 10.5033C151.539 10.4566 151.506 10.4154 151.465 10.3821C151.424 10.3489 151.377 10.3243 151.326 10.3099L150.548 10.0729C150.497 10.0573 150.444 10.052 150.392 10.0573C150.339 10.0625 150.288 10.0782 150.242 10.1034C150.195 10.1286 150.154 10.1629 150.121 10.2041C150.088 10.2454 150.064 10.2929 150.049 10.3437C150.033 10.3943 150.028 10.4475 150.033 10.5001C150.039 10.5528 150.054 10.6038 150.079 10.6503C150.105 10.6968 150.139 10.7379 150.18 10.771C150.221 10.8041 150.269 10.8286 150.319 10.8432ZM146.438 9.86969L147.225 10.0475C147.329 10.0703 147.438 10.0511 147.528 9.99406C147.619 9.93704 147.683 9.84676 147.707 9.74273C147.719 9.69099 147.721 9.6373 147.713 9.58479C147.704 9.5323 147.685 9.48206 147.656 9.43708C147.628 9.39209 147.591 9.35326 147.547 9.32288C147.504 9.2925 147.454 9.2712 147.402 9.26022L146.608 9.08247C146.51 9.07494 146.412 9.10317 146.334 9.16195C146.255 9.22073 146.2 9.30606 146.18 9.40215C146.159 9.49824 146.174 9.59859 146.221 9.68456C146.269 9.7705 146.346 9.83629 146.438 9.86969Z" fill="#222222"/>
<path fill-rule="evenodd" clip-rule="evenodd" d="M120.309 53.8336C120.309 53.8342 120.308 53.8348 120.308 53.8353L120.309 53.8336Z" fill="#222222"/>
<path fill-rule="evenodd" clip-rule="evenodd" d="M184.933 58.9663C184.338 57.7804 183.444 56.7706 182.339 56.0371C181.234 55.3036 179.957 54.8719 178.634 54.7848C175.776 54.6068 174.77 54.6408 167.118 54.6068V52.3976C167.118 52.3976 171.836 51.9067 172.597 51.8472C172.553 50.4454 172.411 49.0482 172.174 47.6656C172.174 47.6147 171.904 47.5642 171.726 47.5642C172.013 47.5642 167.938 47.327 163.27 47.3101C163.213 47.3035 163.155 47.3083 163.1 47.3241C163.045 47.3402 162.994 47.367 162.949 47.4032C162.797 47.5642 162.814 47.0563 162.848 54.6068C157.84 54.4384 152.828 54.5853 147.839 55.0472C146.22 55.1435 144.703 55.8692 143.611 57.0701C142.022 58.9301 141.037 61.2302 140.787 63.6644C140.389 66.1361 138.986 79.1128 139.239 80.6618C134.719 84.2116 131.083 88.764 128.619 93.9602C127.689 95.9409 127.326 97.727 127.774 99.2846C126.972 98.9066 126.116 98.658 125.237 98.5482C125.237 98.5482 125.144 98.3027 125.102 98.1251C124.899 97.2786 126.446 97.3292 127.156 97.9132C127.232 97.998 127.359 97.9132 127.283 97.7948C126.277 96.3303 123.842 97.2786 125.06 98.5398C123.986 98.489 123.681 99.0983 124.121 99.8517C123.487 100.14 123.63 100.859 124.121 101.392C124.967 102.239 125.93 102.239 125.812 101.9C125.8 101.862 125.775 101.83 125.74 101.809C125.706 101.789 125.665 101.782 125.626 101.79C125.076 101.926 123.986 100.8 124.222 100.41C124.459 100.021 127.605 100.47 127.385 102.713C127.249 104.677 121.83 103.356 121.153 98.7175C121.153 98.616 121.102 98.5821 120.941 98.4211C120.781 98.2605 120.291 97.7609 119.682 97.1685C120.794 95.9288 122.042 94.8185 123.402 93.8587C123.644 94.5408 124.09 95.1318 124.679 95.5517C124.767 95.5928 124.861 95.6187 124.958 95.6279C125.814 95.7845 126.686 95.8357 127.554 95.7802C127.574 95.7837 127.594 95.7828 127.614 95.7782C127.634 95.7736 127.653 95.7653 127.669 95.7535C127.685 95.7417 127.699 95.7267 127.71 95.7095C127.721 95.6923 127.728 95.6733 127.732 95.6532C127.735 95.6333 127.734 95.6126 127.729 95.5931C127.725 95.5733 127.717 95.5546 127.705 95.5379C127.693 95.5215 127.678 95.5074 127.661 95.4968C127.644 95.4862 127.625 95.4787 127.605 95.4755C126.774 95.1513 125.904 94.9406 125.017 94.8489C124.569 94.4629 124.154 94.0412 123.774 93.5877C124.205 93.283 124.882 92.7412 124.535 92.3264C120.501 87.6114 117.35 82.2059 115.234 76.3701C115.589 71.2912 115.234 63.6728 112.909 59.0172C113.687 59.144 115.073 59.3472 115.75 59.0172C115.906 58.9445 116.033 58.8218 116.111 58.6683C116.189 58.5148 116.214 58.3397 116.181 58.1707C117.43 58.5473 118.769 58.4846 119.978 57.9928C124.391 55.7074 128.611 46.9884 129.566 40.7753C129.972 40.733 130.412 40.5468 130.217 40.0472C130.124 39.8187 129.676 39.8526 129.718 39.5816C129.761 39.3108 130.826 39.1585 130.386 38.6419C130.163 38.4847 129.91 38.3752 129.642 38.3203C129.152 38.0409 129.583 37.7618 129.642 37.7449C129.702 37.7279 129.896 37.6857 129.972 37.5416C130.01 37.4117 130.01 37.2738 129.972 37.1438C129.913 36.6865 129.127 37.0085 128.924 36.7374C128.458 36.1956 130.124 36.018 129.414 35.4678C129.034 35.1715 128.154 35.7386 127.909 35.2985C127.664 34.8582 128.949 34.3589 128.146 33.7918C127.579 33.4023 126.793 34.5196 126.455 33.851C126.294 33.5547 126.759 33.3262 126.843 33.1146C126.872 33.0103 126.874 32.9005 126.849 32.7956C126.823 32.6906 126.772 32.5935 126.7 32.5136C126.615 32.4035 126.319 32.4457 126.21 32.5136C125.93 32.6659 125.491 33.1991 125.119 32.9114C124.561 32.4797 125.575 32.175 125.06 31.7007C124.998 31.6257 124.924 31.5625 124.84 31.5148C124.468 31.3285 124.188 31.574 123.892 31.7433C123.681 31.6671 123.969 31.4892 124.011 31.3707C124.033 31.2655 124.014 31.156 123.959 31.0638C123.905 30.9715 123.818 30.9028 123.715 30.8712C123.275 30.7188 123.064 31.4722 122.531 31.1592C122.328 31.0405 122.531 30.8542 122.607 30.7444C122.644 30.6841 122.668 30.6162 122.676 30.5461C122.683 30.4757 122.676 30.4044 122.653 30.3374C122.631 30.2705 122.594 30.2092 122.545 30.1581C122.496 30.1069 122.437 30.0672 122.37 30.0417C121.525 29.8048 121.271 30.9729 120.468 30.6427C119.868 30.3889 121.018 29.5168 120.248 29.2969C119.91 29.1952 119.732 29.3475 119.504 29.6099C119.276 29.8724 119.25 30.1687 118.862 30.2196C118.084 30.3297 118.54 29.5677 118.439 29.3053C118.337 29.0428 118.117 29.0345 117.872 29.0681C117.162 29.1699 117.492 30.0756 116.942 30.1517C116.392 30.2279 116.714 29.3814 116.223 29.4832C115.606 29.6099 116.494 30.3297 115.835 30.4734C115.175 30.6174 115.699 29.5254 114.989 29.6861C114.279 29.8471 114.676 30.7188 114.143 30.8968C113.611 31.0744 114.008 30.355 113.577 30.4142C112.731 30.5243 113.027 31.2607 112.816 31.4047C112.368 31.6246 112.452 30.7697 111.97 30.8289C111.006 30.9643 111.412 31.8108 111.125 32.3612C110.922 32.7504 110.431 32.0563 110.169 32.4205C109.907 32.7843 110.355 33.0976 110.169 33.4615C110.068 33.6731 109.713 33.1908 109.248 33.6478C108.782 34.1048 108.943 34.5535 109.011 35.0444C109.104 35.7808 108.165 35.1036 108.022 35.544C107.912 35.8148 108.563 36.3226 108.318 36.5089C108.072 36.6952 108.005 36.3566 107.556 36.6443C107.108 36.9323 107.1 37.2623 107.421 37.6431C107.565 37.8124 107.861 37.9225 107.692 38.2611C107.523 38.5997 107.142 38.168 106.846 38.5235C106.474 39.0484 107.607 38.93 107.353 39.4292C107.1 39.9288 106.457 39.8865 106.457 39.8865C105.95 40.606 106.956 40.919 107.303 41.2915C107.649 41.664 106.787 41.8756 106.77 42.1889C106.77 42.8491 107.277 42.8238 107.421 42.9931C107.565 43.1624 107.024 43.2047 107.125 43.6447C107.185 43.7982 107.292 43.929 107.43 44.0184C107.568 44.1081 107.73 44.152 107.895 44.1443C107.832 44.2055 107.786 44.2811 107.759 44.3645L93.664 40.3183C81.3524 36.6612 64.1116 44.5504 62.8179 55.9782C56.899 60.5409 50.1345 71.5283 48.976 77.2166C46.6679 85.8339 47.0566 92.7242 49.3312 98.8023C51.8679 105.659 58.6323 121.48 58.6323 121.48C58.6323 121.48 47.3188 148.136 48.0799 157.599C48.0799 158.158 47.454 163.897 47.4457 163.982C48.7478 164.168 54.8019 164.955 57.1695 165.048C58.4463 165.186 59.7374 165.011 60.9324 164.541C61.9046 164.007 60.7125 162.103 60.459 161.773C58.6154 159.352 56.2986 159.606 53.8297 159.707V159.555C56.2389 159.56 58.6438 159.354 61.0168 158.937C61.8118 158.624 76.7442 145.198 81.7415 130.681C83.4326 125.678 80.7859 106.031 81.3694 105.904C82.2149 105.727 85.7749 125.128 82.9844 131.35C82.5081 132.341 81.9568 133.295 81.3358 134.202C81.3358 134.202 80.3547 135.278 79.2726 150.379C79.2726 150.463 77.9366 158.548 77.9197 158.632C77.9027 158.717 90.9074 161.578 91.6008 159.809C91.7684 159.072 91.6886 158.3 91.3736 157.613C91.0587 156.926 90.5264 156.362 89.8588 156.008C88.1677 154.679 86.6543 154.84 84.7347 154.772C84.8277 154.417 84.9715 153.926 85.1406 153.291C87.2343 153.318 89.3205 153.033 91.33 152.444C93.664 148.457 98.7457 136.056 98.94 121.886C99.0925 111.195 91.9812 95.5939 90.8904 93.266C94.5856 89.6314 97.6796 85.4309 100.056 80.8228C103.439 90.8619 110.693 97.1007 117.813 98.7767C117.866 98.7896 117.921 98.7919 117.975 98.7833C118.028 98.7744 118.08 98.7551 118.126 98.7261C118.439 98.3789 118.972 97.727 119.369 97.3378C119.665 97.6764 120.291 98.4128 120.57 98.7597C121.043 104.11 127.647 105.828 128.061 102.832C128.498 102.46 128.815 101.969 128.974 101.418C130.19 102.541 131.675 103.331 133.286 103.709C134.897 104.088 136.578 104.042 138.166 103.576C140.685 102.841 142.975 101.475 144.82 99.6062C146.621 97.9132 154.849 87.4168 155.685 85.4108L165.367 84.835V156.042C164.167 153.13 162.53 150.418 160.514 148C160.483 147.967 160.443 147.945 160.398 147.937C160.354 147.929 160.308 147.937 160.268 147.958C160.228 147.98 160.197 148.014 160.179 148.055C160.16 148.096 160.156 148.142 160.167 148.186C160.167 148.186 161.435 152.106 162.213 154.603C161.242 153.4 160.185 152.268 159.051 151.217C159.017 151.189 158.975 151.173 158.931 151.171C158.887 151.169 158.844 151.182 158.808 151.207C158.772 151.232 158.745 151.267 158.731 151.309C158.717 151.35 158.716 151.395 158.729 151.437C158.729 151.437 160.006 154.721 160.488 156.127C159.947 155.678 157.013 153.282 156.506 153.748C156.471 153.784 156.451 153.833 156.451 153.883C156.451 153.934 156.471 153.983 156.506 154.019C157.326 154.857 158.052 155.782 158.67 156.778C160.023 159.047 159.305 159.656 159.795 159.648C159.85 159.646 159.901 159.623 159.939 159.583C159.977 159.544 159.998 159.491 159.998 159.436C159.914 158.413 159.576 157.427 159.017 156.567C157.816 154.552 156.768 153.977 157.783 154.603C158.824 155.301 159.826 156.055 160.784 156.863C160.809 156.877 160.837 156.886 160.866 156.888C160.895 156.891 160.924 156.887 160.951 156.877C160.978 156.868 161.003 156.852 161.024 156.832C161.045 156.812 161.061 156.788 161.072 156.761C161.1 156.665 161.1 156.562 161.072 156.465C160.886 155.822 159.973 153.426 159.482 152.131C163.38 155.915 162.459 156.592 163 156.753C163.029 156.76 163.059 156.761 163.088 156.756C163.118 156.751 163.146 156.74 163.171 156.723C163.196 156.706 163.217 156.684 163.232 156.659C163.248 156.634 163.258 156.605 163.262 156.575C163.262 156.33 161.376 150.438 160.953 149.134C162.645 151.386 164.733 154.696 165.342 157.439V160.706H168.868V158.886C170.389 155.781 173.039 153.376 176.275 152.165C176.19 152.258 171.667 156.888 172.132 158.598C172.144 158.654 172.177 158.702 172.225 158.734C172.272 158.766 172.329 158.777 172.385 158.767C172.96 158.649 174.406 155.763 179.995 154.222L179.907 154.298C179.172 154.931 178.021 155.923 177.704 156.127C176.732 156.838 175.108 158.767 175.083 159.377C175.079 159.414 175.087 159.45 175.105 159.482C175.124 159.514 175.151 159.539 175.184 159.555C175.311 159.631 175.387 159.555 175.514 159.47C176.267 158.937 179.125 156.931 180.046 157.057C179.64 157.659 178.532 158.911 178.549 160.02C178.559 160.066 178.584 160.107 178.62 160.137C178.656 160.166 178.702 160.182 178.748 160.182C178.795 160.182 178.84 160.166 178.876 160.137C178.913 160.107 178.937 160.066 178.947 160.02C178.947 158.844 180.486 157.362 180.511 157.015C180.537 156.668 180.181 156.668 179.936 156.668C178.888 156.668 176.655 158.2 175.801 158.793C177.137 156.761 178.516 156.152 180.74 154.112C180.968 153.9 180.833 153.722 180.689 153.705C180.317 153.663 176.596 154.306 172.647 158.048C173.907 154.332 176.74 152.715 177.002 151.919C177.053 151.759 176.934 151.615 176.622 151.657C173.476 152.055 170.821 154.967 169.189 157.701V84.6488C169.95 84.6488 185.838 83.3961 185.838 83.3961C185.959 83.3881 186.073 83.3364 186.158 83.2507C186.244 83.1651 186.295 83.0512 186.303 82.9305L187.149 70.1147C187.149 66.3393 186.76 62.2083 184.933 58.9663ZM53.8719 163.44L54.4892 160.427C53.3646 160.427 53.3477 160.503 53.1447 160.317C52.9417 160.13 53.0433 159.919 53.1447 159.538C51.6186 159.513 50.0981 159.343 48.6042 159.03C48.5112 160.283 48.4181 161.129 48.1474 162.822L53.8719 163.44ZM114.22 56.994C114.453 57.0069 114.688 57.0069 114.921 56.994C115.116 56.977 115.648 56.9687 115.665 56.7655C115.682 56.5622 115.183 56.3846 114.955 56.3168C113.974 56.0204 113.053 56.2406 111.285 56.0204C110.888 55.9699 110.947 55.5125 110.947 55.5125C110.982 55.4321 111.042 55.3651 111.118 55.3223C111.195 55.2791 111.283 55.2631 111.37 55.2757C112.673 55.4217 113.987 55.4415 115.293 55.3349C115.53 55.284 115.632 55.2501 115.581 55.0216C115.479 54.5476 113.873 54.4462 113.391 54.4462C111.978 54.4505 110.567 54.5324 109.163 54.6916C109.114 54.6939 109.065 54.685 109.019 54.6655C108.974 54.6456 108.934 54.616 108.902 54.5784C108.87 54.5407 108.848 54.4962 108.836 54.4482C108.823 54.4005 108.823 54.3505 108.833 54.3022C109.126 53.4585 109.36 52.596 109.535 51.7204C109.544 51.6017 109.569 51.2209 109.451 51.2209C109.053 51.2209 108.749 51.8305 108.605 52.1522C108.323 52.8707 108.116 53.6169 107.988 54.3783C107.98 54.422 107.959 54.4623 107.927 54.4927C107.895 54.5235 107.854 54.5427 107.81 54.5476C107.81 54.5476 106.026 54.8523 105.527 55.0216C106.425 56.2668 107.056 57.6847 107.379 59.1865C108.04 58.7232 108.745 58.3262 109.484 58.0014C109.806 57.8488 112.376 58.5177 114.143 58.5769C115.911 58.6361 115.835 58.0859 114.718 57.7896C114.515 57.7304 113.027 57.722 111.336 57.4257C110.668 57.3073 110.854 56.6554 111.277 56.6554C111.362 56.6554 114.135 56.994 114.22 56.994ZM120.37 53.9403C120.378 53.9383 120.385 53.9348 120.392 53.9296C121.567 53.2102 120.874 52.0251 117.889 52.5922C117.876 52.5971 117.865 52.6057 117.857 52.6169C117.849 52.6284 117.845 52.6419 117.845 52.6557C117.845 52.6695 117.849 52.6831 117.857 52.6943C117.865 52.7058 117.876 52.7144 117.889 52.7193C118.828 52.7193 121.043 52.6345 120.595 53.481C120.521 53.6109 120.427 53.7282 120.316 53.8282C120.314 53.8299 120.312 53.8316 120.31 53.8336L120.308 53.8354C120.305 53.8388 120.302 53.8426 120.299 53.8466C120.295 53.8538 120.292 53.8615 120.291 53.8699C120.29 53.8782 120.29 53.8865 120.293 53.8946C120.295 53.9026 120.298 53.9104 120.303 53.917C120.308 53.9236 120.314 53.9294 120.322 53.9334C120.329 53.9377 120.337 53.9406 120.345 53.9417C120.348 53.942 120.351 53.9423 120.353 53.9423H120.354C120.36 53.9423 120.365 53.9417 120.37 53.9403ZM107.879 44.7304C107.831 44.7036 107.789 44.6651 107.759 44.6183L104.521 44.0172C103.66 45.0744 103.125 46.3598 102.982 47.7165C102.841 50.0073 103.408 52.2858 104.605 54.243C105.037 54.2174 104.944 54.1751 105.375 54.8354C106.096 54.5614 106.837 54.3407 107.59 54.1751C107.751 53.0409 108.174 50.7383 109.366 50.6791C110.558 50.6199 109.848 52.8716 109.518 54.0058C110.034 53.9466 110.947 53.8365 111.928 53.7773C111.843 52.55 115.209 48.7998 119.851 50.112L120.003 50.1628C119.955 50.116 119.928 50.0519 119.927 49.9849C119.969 49.782 120.105 49.8495 121.872 50.1036C122.404 50.1881 122.514 50.1712 122.717 49.8495C123.318 48.9016 123.732 46.8361 124.628 44.9569C124.635 44.9379 124.645 44.9206 124.659 44.9057C124.672 44.8907 124.688 44.8787 124.706 44.87C124.724 44.8614 124.744 44.8562 124.764 44.8554C124.784 44.8542 124.804 44.8571 124.823 44.8637C124.842 44.8703 124.859 44.8807 124.874 44.8942C124.889 44.9074 124.901 44.9238 124.909 44.9419C124.918 44.96 124.923 44.9796 124.924 44.9994C124.925 45.0195 124.922 45.0396 124.916 45.0586C124.89 45.194 124.282 48.893 123.352 50.2729C122.751 51.1617 122.075 50.9245 120.95 50.5267C122.81 51.4155 123.115 52.7785 122.963 53.7181C122.92 53.9805 122.869 54.243 122.81 54.4968C124.764 52.001 126.313 49.2129 127.402 46.2351C127.292 45.7272 126.641 45.6087 126.116 45.6087C126.032 45.6001 125.592 45.5495 125.33 45.5495C125.291 45.5607 125.249 45.5559 125.213 45.536C125.177 45.5162 125.151 45.4829 125.14 45.4435C125.129 45.4044 125.133 45.3621 125.153 45.3265C125.173 45.2908 125.206 45.2644 125.245 45.2532C125.506 45.0971 125.793 44.9882 126.091 44.9316C126.379 44.8772 126.676 44.8879 126.96 44.9623C127.243 45.037 127.507 45.1739 127.732 45.3633C128.336 43.7378 128.814 42.0681 129.16 40.3688C128.695 39.4292 125.051 36.2212 115.691 37.4738C115.691 37.4738 114.422 45.2109 114.27 44.9229C112.486 41.2832 109.078 43.0101 111.074 46.1419C111.826 47.3356 109.865 46.3704 109.679 46.3199C109.493 46.269 109.4 45.7611 109.349 45.7611C109.078 45.6427 108.765 45.9813 108.503 45.7611C108.241 45.5409 108.52 45.3547 108.444 45.1009C108.436 45.05 108.503 44.7706 108.038 44.7706C107.983 44.7709 107.928 44.7571 107.879 44.7304ZM102.646 46.2489C102.975 45.3383 103.506 44.5142 104.199 43.8396L103.472 43.5602C101.012 46.6329 101.68 52.8038 103.549 54.1751H104.242C103.077 52.7293 102.399 50.9516 102.306 49.0962C102.202 48.1336 102.318 47.1597 102.646 46.2489ZM103.16 43.5772L93.5201 40.8175C77.2771 36.1786 52.4599 52.0251 68.9651 68.3709C76.6937 76.0402 87.9647 73.2888 97.5619 68.0067C100.318 66.4747 105.628 63.0295 107.142 61.3957C106.77 58.0181 106.237 57.1463 104.715 54.7761C96.302 55.0639 93.4693 54.9454 87.0009 56.833C86.9615 56.8454 86.919 56.8416 86.8826 56.8227C86.8461 56.8037 86.8188 56.7709 86.8065 56.7315C86.7941 56.6922 86.7979 56.6496 86.8168 56.6131C86.8358 56.5766 86.8685 56.5493 86.9078 56.537C89.7405 55.6649 89.2585 56.0035 90.2309 55.284C93.1567 53.1254 93.8753 49.8835 94.1205 46.1589C94.1205 46.1184 94.1366 46.0799 94.165 46.0511C94.1937 46.0227 94.2322 46.0066 94.2727 46.0066C94.3132 46.0066 94.3516 46.0227 94.3803 46.0511C94.4088 46.0799 94.4248 46.1184 94.4248 46.1589C94.7209 49.8326 93.9767 53.5402 90.8652 55.4703C94.8308 54.5899 98.34 54.5223 103.083 54.3105C100.826 52.55 100.141 46.5653 103.16 43.5772ZM101.604 72.3156C102.644 70.8342 105.299 64.6207 105.738 63.4273C104.698 64.2568 103.261 65.3065 101.739 66.297C98.6865 73.6444 95.1604 76.1839 92.9028 79.1804C93.6425 79.5635 94.4739 79.7334 95.3043 79.6716C95.3973 79.5698 96.7924 79.1637 101.604 72.3156ZM84.3798 158.522L85.2253 155.534C84.312 155.458 84.0752 155.534 83.9316 155.331C83.7878 155.128 83.8469 155.119 84.4473 153.274C82.8494 153.19 81.2606 152.98 79.6952 152.647C79.5028 154.295 79.2206 155.932 78.8496 157.549L84.3798 158.522ZM111.497 95.1622C113.452 96.4465 115.598 97.4122 117.855 98.0233C119.56 95.9507 121.547 94.1272 123.757 92.6058C117.635 85.5631 114.541 76.8019 114.541 76.3787C115.555 64.5954 112.452 58.7631 112.528 58.9494C111.37 58.7462 110.085 58.4076 109.679 58.4076C108.908 58.7203 108.161 59.0908 107.446 59.5165C107.556 60.0753 107.649 60.7016 107.734 61.4466C107.745 61.5236 107.727 61.6021 107.683 61.6665C107.208 62.181 106.691 62.6538 106.136 63.0804C104.953 67.0458 103.195 70.8161 100.919 74.2707C99.5562 76.379 97.8728 78.2612 95.9299 79.8492C95.6373 80.07 95.2994 80.2232 94.9408 80.2979C93.9399 80.3907 92.9384 80.1237 92.1164 79.5445C92.0794 79.5169 92.0484 79.4825 92.0248 79.4428C92.0013 79.4028 91.9861 79.3589 91.9798 79.3132C91.9734 79.2675 91.9763 79.2209 91.9881 79.1763C92.0001 79.1318 92.0208 79.0901 92.0489 79.0536C94.3826 75.8622 97.9848 73.3906 101.223 66.6187C90.713 73.4159 77.3107 77.7162 68.4239 68.921C64.103 64.6377 62.4966 60.3716 62.7757 56.4777C57.3555 61.5567 50.3458 73.1788 49.2468 77.64C59.3088 94.6374 81.9192 99.8942 89.9519 93.7233C96.0106 86.975 100.749 79.1476 103.921 70.6479C103.936 70.6008 103.97 70.5617 104.014 70.5396C104.059 70.5174 104.11 70.5137 104.157 70.5295C104.204 70.545 104.243 70.5789 104.265 70.6232C104.288 70.6677 104.291 70.7192 104.276 70.7663C103.228 74.1086 101.902 77.3563 100.31 80.4755C102.281 86.4921 106.223 91.6667 111.497 95.1622ZM171.692 47.9533C171.54 47.945 165.105 47.9367 163.634 48.1396C163.642 48.3937 163.566 56.7146 163.397 63.6728C163.844 63.4149 164.345 63.2678 164.86 63.2442C165.375 63.2206 165.888 63.3212 166.356 63.5374V51.8472L172.056 51.3818C172.056 51.3818 171.785 48.8846 171.692 47.9533ZM163.879 64.6377C163.421 65.0892 163.139 65.6897 163.084 66.3307C163.003 66.8365 163.118 67.3545 163.405 67.7782C163.82 68.4554 163.515 66.6948 163.515 66.2375C163.658 65.69 163.844 65.1551 164.074 64.6377C164.047 64.6135 164.012 64.5997 163.976 64.5997C163.94 64.5997 163.906 64.6135 163.879 64.6377ZM148.355 75.7016L147.653 75.6421V75.6507C147.571 75.6587 147.495 75.6949 147.437 75.7533C147.378 75.8114 147.342 75.8881 147.334 75.97C147.326 76.0517 147.347 76.1339 147.393 76.2023C147.439 76.2707 147.506 76.321 147.585 76.3448L148.295 76.404C148.382 76.4 148.463 76.365 148.525 76.3052C148.588 76.2451 148.626 76.1646 148.633 76.0787C148.64 75.9927 148.616 75.9071 148.565 75.8375C148.514 75.7682 148.439 75.7197 148.355 75.7016ZM146.875 57.2394C147.391 56.8586 142.833 58.1707 141.92 62.8941C141.353 65.8567 141.049 70.9612 141.269 70.9526C141.624 70.9526 142.182 64.2485 142.537 63.1649C143.374 60.5832 143.907 59.4826 146.875 57.2394ZM144.076 75.82L144.778 75.9554C144.869 75.9723 144.963 75.9522 145.039 75.8999C145.115 75.8476 145.167 75.7668 145.184 75.676C145.201 75.5852 145.181 75.4912 145.128 75.415C145.076 75.3388 144.996 75.2865 144.905 75.2698L144.22 75.1342C144.175 75.125 144.128 75.1244 144.083 75.1327C144.038 75.1414 143.995 75.1586 143.957 75.1839C143.918 75.2089 143.885 75.2414 143.859 75.2793C143.833 75.3176 143.815 75.3601 143.805 75.4052C143.796 75.4501 143.796 75.4966 143.804 75.5417C143.813 75.5872 143.83 75.63 143.855 75.6685C143.88 75.707 143.913 75.7404 143.95 75.7662C143.988 75.7924 144.031 75.8105 144.076 75.82ZM141.556 74.3978L140.914 74.1523C140.827 74.1218 140.732 74.1261 140.649 74.1641C140.565 74.202 140.5 74.271 140.466 74.3564C140.432 74.4417 140.432 74.5369 140.467 74.622C140.502 74.707 140.568 74.7755 140.651 74.8125L141.32 75.058C141.407 75.0896 141.503 75.085 141.587 75.0451C141.671 75.0054 141.736 74.9341 141.768 74.8464C141.799 74.7588 141.794 74.6625 141.755 74.5783C141.715 74.4941 141.644 74.4294 141.556 74.3978ZM127.785 101.159C128.041 101.584 128.172 102.073 128.163 102.569C128.511 102.164 128.717 101.655 128.746 101.122C128.422 100.748 128.16 100.325 127.968 99.8687C126.97 99.2981 125.858 98.9569 124.713 98.8698C124.383 98.8784 124.155 98.963 124.155 99.2846C124.164 99.4461 124.204 99.6042 124.273 99.7502C125.111 99.5962 125.976 99.743 126.717 100.165C127.159 100.389 127.529 100.734 127.785 101.159ZM131.004 101.866C135.528 104.533 140.499 102.645 144.347 99.0391C145.725 97.7865 154.358 87.5269 155.508 85.1228C155.508 85.1228 139.383 80.8903 139.332 80.8903C135.959 83.5315 131.756 88.8559 129.313 94.2479C127.841 97.4562 127.918 100.055 131.004 101.866ZM151.805 75.8114H151.111V75.8369C151.039 75.8599 150.977 75.9051 150.933 75.966C150.888 76.0266 150.864 76.1002 150.864 76.1755C150.864 76.2508 150.888 76.3241 150.933 76.3851C150.977 76.446 151.039 76.4911 151.111 76.5141H151.805C151.888 76.5009 151.964 76.4584 152.02 76.394C152.075 76.3296 152.105 76.2477 152.105 76.1629C152.105 76.0778 152.075 75.9959 152.02 75.9315C151.964 75.8671 151.888 75.8246 151.805 75.8114ZM154.637 76.421L155.339 76.3618V76.3871C155.435 76.3793 155.525 76.3333 155.587 76.2595C155.65 76.1856 155.681 76.0899 155.673 75.9936C155.665 75.897 155.619 75.8073 155.545 75.7447C155.472 75.682 155.376 75.6513 155.28 75.659L154.586 75.7182C154.503 75.736 154.428 75.7838 154.376 75.8525C154.325 75.9212 154.3 76.0062 154.306 76.0919C154.312 76.1776 154.349 76.258 154.41 76.3184C154.471 76.379 154.551 76.4153 154.637 76.421ZM185.323 82.3887L186.109 70.013L186.143 70.0383C186.143 70.0383 186.464 63.7489 184.088 59.432C183.573 58.3627 182.788 57.4464 181.81 56.7741C180.833 56.1015 179.697 55.6959 178.516 55.5973C175.827 55.3519 168.445 55.0725 167.058 55.0216V63.9861C167.556 64.4164 167.909 64.9898 168.069 65.6285C168.23 66.2671 168.189 66.9397 167.953 67.5546C167.718 68.1691 167.298 68.6962 166.752 69.0636C166.207 69.4306 165.561 69.6206 164.903 69.6068C164.246 69.5933 163.608 69.3769 163.078 68.9871C162.548 68.5974 162.151 68.0535 161.941 67.4295C161.731 66.8055 161.718 66.132 161.904 65.5006C162.091 64.8691 162.467 64.3106 162.983 63.9013C162.983 63.8168 162.78 57.8152 162.78 54.9032C157.613 55.2165 152.101 55.318 150.164 55.318C157.292 57.4427 155.821 84.4372 155.728 85.013C155.728 85.013 183.961 82.4902 185.323 82.3887Z" fill="#222222"/>
<path d="M144.347 99.0391C140.5 102.645 135.528 104.533 131.004 101.866C127.918 100.055 127.842 97.4562 129.313 94.2479C131.757 88.8559 135.959 83.5315 139.333 80.8903C139.384 80.8903 155.508 85.1228 155.508 85.1228C154.358 87.5269 145.725 97.7865 144.347 99.0391Z" fill="#222222"/>
</svg>
