<svg width="234" height="234" viewBox="0 0 234 234" fill="none" xmlns="http://www.w3.org/2000/svg">
<rect width="234" height="234" fill="#202125"/>
<path fill-rule="evenodd" clip-rule="evenodd" d="M40.3745 14.1436C40.3845 14.9082 53.7622 32.2839 56.4995 35.0866C59.803 38.4697 57.4045 34.4887 50.1019 24.4683C43.0445 14.7842 40.3459 11.9194 40.3745 14.1436ZM135.461 19.5572C130.129 21.5397 127.927 24.6865 128.257 29.8549L128.463 33.0923L119.368 34.7473C90.0872 40.0749 78.9213 42.5535 74.6134 44.6824C66.6311 48.6276 60.323 57.099 57.3553 67.8601C54.5491 78.0344 54.4859 91.0161 57.095 121.095L58.0339 131.918L54.2279 138.116C46.3421 150.958 36.3123 171.101 33.8617 179.018C32.1026 184.702 32.0704 191.428 33.7816 195.811C37.2173 204.61 46.3784 211.641 62.7034 218.006C69.552 220.676 77.6975 221.339 83.3726 219.69C95.6137 216.131 105.512 207.048 119.101 186.905C125.301 177.714 128.015 173.044 133.685 161.816L138.379 152.519L146.556 150.701L154.732 148.883L154.842 178.307C154.916 198.042 155.167 208.381 155.603 209.703C156.407 212.139 158.425 213.525 161.167 213.525C163.932 213.525 165.928 212.135 166.753 209.637C167.221 208.219 167.452 198.11 167.514 176.403L167.602 145.206L174.915 143.024C183.302 140.52 215.25 129.429 221.559 126.832C227.1 124.549 228.735 122.653 228.735 118.506C228.735 114.762 227.19 92.6225 226.364 84.5326C223.281 54.322 214.595 37.4313 197.067 27.5612C195.254 26.5409 191.914 25.3183 189.643 24.845C185.051 23.8874 180.502 24.2951 163.215 27.2119C158.549 27.9987 154.656 28.4205 154.564 28.1485C154.471 27.8765 153.662 26.4994 152.766 25.0884C149.581 20.072 141.244 17.4073 135.461 19.5572ZM136.012 21.2508C132.919 22.4611 131.657 23.3948 130.753 25.1433C129.038 28.4609 129.884 33.3667 132.589 35.7757C133.553 36.6351 134.27 36.6667 139.108 36.0606C145.076 35.3136 145.641 34.9228 145.656 31.5292C145.676 26.8036 138.894 23.644 136.502 27.2646C135.784 28.3527 135.827 28.661 136.874 29.8971C137.986 31.211 138.108 31.2344 138.855 30.2738C139.293 29.711 139.951 29.2501 140.318 29.2501C141.493 29.2501 141.031 30.9477 139.601 31.8849C135.696 34.4431 132.377 28.1192 136.091 25.1978C138.951 22.9473 144.108 24.1676 146.273 27.6062C147.241 29.1442 147.433 30.1738 147.205 32.6138L146.919 35.6851H149.169C152.787 35.6851 153.27 35.2919 153.27 32.347C153.27 24.2085 143.881 18.1719 136.012 21.2508ZM181.057 26.1127C173.133 27.3061 156.871 29.9667 156.048 30.2036C155.278 30.4259 155.025 31.1209 155.025 33.0157C155.025 35.4692 155.08 35.5411 157.218 35.8945C161.798 36.6515 163.584 36.356 165.555 34.5151C167.332 32.8548 169.65 32.1534 169.65 33.2754C169.65 33.5592 168.728 34.494 167.602 35.3528C165.177 37.2031 164.902 38.2444 167.055 37.4254C169.512 36.4912 174.33 36.6948 174.33 37.7326C174.33 38.3959 173.58 38.62 171.258 38.651C167.217 38.7054 166.323 39.1196 165.109 41.5035C163.304 45.0468 161.436 45.9348 155.997 45.8348C149.573 45.7172 138.538 44.1722 131.04 42.3412C122.477 40.2504 122.109 39.7128 128.115 38.0689L131.665 37.0972L130.329 35.8565L128.992 34.6157L111.595 37.9157L94.1986 41.2156L99.4279 42.4985C117.241 46.8679 129.634 61.8644 133.661 83.9224C135.37 93.2824 138.032 130.303 138.051 144.973C138.059 150.445 138.155 150.98 139.083 150.705C139.647 150.538 143.793 149.568 148.297 148.549C162.627 145.308 177.226 140.793 205.302 130.916C226.207 123.562 227.208 122.965 227.146 117.88C227.091 113.282 225.161 88.4989 224.3 81.325C221.756 60.1293 216.465 46.9094 206.565 37.0095C198.437 28.8809 189.115 24.8982 181.057 26.1127ZM19.3046 34.8163C19.3046 35.8921 21.0572 36.9995 30.0346 41.5971C37.4279 45.3838 43.2896 47.6723 43.2896 46.7726C43.2896 46.4707 39.8761 44.5127 35.7039 42.4219C31.5317 40.3317 26.3936 37.5652 24.2859 36.2753C20.0978 33.7118 19.3046 33.4796 19.3046 34.8163ZM83.9635 43.2912C74.2291 45.0451 66.72 50.9401 61.9833 60.5476C57.0207 70.6119 55.9408 80.5089 57.3541 102.96C57.9368 112.208 59.5766 130.59 59.8375 130.788C60.2786 131.123 102.645 119.263 102.988 118.709C103.222 118.33 103.704 118.199 104.058 118.419C104.628 118.771 118.512 115.407 121.858 114.107C122.564 113.832 125.735 112.99 128.905 112.236L134.667 110.865L134.289 105.304C133.765 97.5851 133.526 96.6292 132.07 96.4145C130.188 96.1366 130.068 94.7701 131.926 94.7701H133.494L133.095 91.1138C130.404 66.521 117.836 48.9318 99.573 44.1997C95.02 43.0198 87.8016 42.5998 83.9635 43.2912ZM119.714 64.7186C118.622 65.3095 118.24 65.8243 118.613 66.1975C119.354 66.9387 123.664 65.1954 123.15 64.3623C122.646 63.5469 121.694 63.6457 119.714 64.7186ZM113.051 67.4038C111.644 68.0829 111.384 68.7446 112.303 69.312C112.925 69.697 116.123 68.2198 116.705 67.2792C117.183 66.5052 114.741 66.5888 113.051 67.4038ZM107.189 70.0567C105.176 71.0582 104.933 72.3833 106.823 72.0551C108.501 71.7638 110.647 70.2223 110.256 69.5893C109.808 68.8645 109.486 68.9136 107.189 70.0567ZM101.058 72.8758C99.7269 73.5971 98.7628 75.4651 99.7222 75.4651C100.67 75.4651 104.117 73.3789 103.958 72.9016C103.643 71.9574 102.769 71.9492 101.058 72.8758ZM94.3308 76.1788C92.9982 76.8217 92.4998 78.3901 93.6288 78.3901C94.6695 78.3901 97.6946 76.638 97.6946 76.0348C97.6946 75.2983 96.008 75.3703 94.3308 76.1788ZM88.4024 79.601C87.0593 80.4206 86.6147 80.9992 87.0195 81.404C87.804 82.1885 91.2596 80.4358 91.2596 79.2523C91.2596 78.1046 90.7571 78.166 88.4024 79.601ZM82.3383 82.8197C81.4538 83.3 80.7296 84.0792 80.7296 84.5513C80.7296 85.6885 81.2344 85.6329 83.5083 84.2465C86.7001 82.3002 85.6524 81.022 82.3383 82.8197ZM77.2377 86.6532C77.2482 87.0954 77.9099 87.9332 78.709 88.5146C80.0481 89.4898 80.2347 89.4986 81.1098 88.6235C82.2681 87.4652 81.658 86.7362 79.1027 86.2255C77.7086 85.9465 77.2243 86.0576 77.2377 86.6532ZM83.7979 89.0575C84.0898 89.9333 87.5981 91.022 88.1977 90.4223C88.4329 90.1872 88.1146 89.6209 87.4904 89.1646C86.0765 88.1309 83.4639 88.0548 83.7979 89.0575ZM19.0121 91.5824C7.01197 92.6243 5.26457 92.922 5.26457 93.9282C5.26457 94.9847 4.46897 95.021 19.0121 93.304C25.7688 92.5067 31.7581 91.8521 32.3208 91.8497C32.8836 91.8468 33.3446 91.5818 33.3446 91.2601C33.3446 90.5364 30.2663 90.606 19.0121 91.5824ZM81.3146 91.0816C81.3146 91.662 84.3648 94.7701 84.934 94.7701C85.8735 94.7701 85.3833 93.1941 84.0559 91.9468C82.7385 90.7096 81.3146 90.2603 81.3146 91.0816ZM90.0896 91.16C90.0896 91.9176 94.6005 93.3789 95.1732 92.8068C95.8454 92.134 94.4794 91.2343 92.233 90.8699C90.8624 90.6476 90.0896 90.7523 90.0896 91.16ZM97.3646 93.0759C96.8118 93.9704 97.7232 94.6881 99.9849 95.1404C101.495 95.4422 101.886 95.3504 101.682 94.739C101.303 93.6024 97.859 92.2756 97.3646 93.0759ZM125.766 94.3313C125.762 94.7338 125.6 95.6546 125.406 96.3788C125.146 97.3464 125.304 97.6951 125.999 97.6951C126.519 97.6951 126.945 97.3323 126.945 96.8889C126.945 96.4461 127.337 95.7581 127.816 95.3603C128.295 94.9625 128.542 94.4038 128.366 94.1189C127.878 93.3286 125.776 93.5006 125.766 94.3313ZM103.545 95.8459C103.545 96.4297 106.165 97.6951 107.375 97.6951C108.59 97.6951 108.424 96.6731 107.093 95.9605C105.732 95.2322 103.545 95.1614 103.545 95.8459ZM86.0139 96.6713C86.0402 97.6477 88.0649 100.035 88.8669 100.035C89.8322 100.035 89.5976 98.7305 88.3673 97.2563C87.1652 95.8149 85.9835 95.5212 86.0139 96.6713ZM109.98 98.2724C109.98 99.0031 114.021 100.722 114.722 100.289C115.713 99.677 115.24 98.978 113.402 98.3374C111.119 97.5412 109.98 97.5196 109.98 98.2724ZM124.306 101.829C124.085 103.138 124.066 104.371 124.264 104.569C124.882 105.188 125.667 103.929 126.086 101.644C126.409 99.8923 126.31 99.4501 125.599 99.4501C125.012 99.4501 124.57 100.264 124.306 101.829ZM116.722 100.595C116.341 101.212 119.335 102.96 120.773 102.96C122.386 102.96 121.735 101.753 119.651 100.883C117.25 99.8794 117.17 99.8718 116.722 100.595ZM90.4388 101.698C89.986 102.431 92.1441 105.885 93.0544 105.885C94.0413 105.885 93.6242 104.224 92.2307 102.604C91.2999 101.522 90.7266 101.232 90.4388 101.698ZM123.218 107.786C122.689 109.764 122.779 111.735 123.4 111.735C124.147 111.735 124.383 111.231 124.847 108.664C125.153 106.968 125.053 106.47 124.407 106.47C123.947 106.47 123.412 107.062 123.218 107.786ZM94.5198 107.571C94.2519 108.005 94.6889 108.751 96.9358 111.696C97.0423 111.836 97.415 111.664 97.7642 111.314C98.2211 110.858 98.0228 110.171 97.0593 108.867C95.674 106.994 95.0679 106.684 94.5198 107.571ZM129.17 113.996C124.372 115.266 123.446 115.703 123.163 116.833C122.978 117.569 122.42 118.17 121.922 118.17C121.31 118.17 121.126 117.822 121.355 117.102C121.66 116.14 120.907 116.242 113.817 118.126C106.359 120.106 105.957 120.288 106.268 121.534C106.661 123.11 105.482 123.323 104.419 121.868C103.76 120.969 101.983 121.347 83.1597 126.386C71.8627 129.41 62.9432 132.066 63.3399 132.288C66.0771 133.82 114.473 146.213 130.256 149.424L136.785 150.752L136.546 145.43C135.638 125.293 135.018 112.604 134.937 112.553C134.885 112.521 132.29 113.17 129.17 113.996ZM99.2811 114.805C100.325 116.592 102.375 117.739 102.375 116.537C102.375 115.543 99.9679 112.905 99.0606 112.905C98.3106 112.905 98.3451 113.202 99.2811 114.805ZM149.613 115.563C148.354 116.889 149.537 135.081 150.979 136.571C151.799 137.418 154.839 137.044 167.304 134.561C177.797 132.472 195.835 127.687 198.404 126.312C200.006 125.454 199.826 122.516 198.103 121.387C195.254 119.52 171.872 116.062 157.95 115.448C153.606 115.257 149.855 115.308 149.613 115.563ZM151.589 116.904L150.201 117.1L150.617 123.632C151.017 129.905 151.691 134.921 152.201 135.432C152.334 135.564 152.986 135.532 153.65 135.358C154.752 135.07 154.81 134.807 154.328 132.31C154.038 130.807 153.616 126.682 153.389 123.143C152.983 116.801 152.957 116.71 151.589 116.904ZM29.2414 124.936C25.5459 127.37 20.3517 130.594 17.6999 132.102C13.0591 134.739 11.6656 136.305 13.9588 136.305C16.1146 136.305 36.8546 122.496 36.8546 121.061C36.8546 120.049 36.0011 120.484 29.2414 124.936ZM120.29 122.338C119.777 124.907 119.82 125.19 120.729 125.19C121.406 125.19 122.265 122.859 122.265 121.022C122.265 119.641 120.609 120.744 120.29 122.338ZM131.771 123.829C130.328 124.836 130.002 126.36 131.23 126.36C132.017 126.36 134.55 123.987 134.55 123.251C134.55 122.573 133.156 122.864 131.771 123.829ZM107.055 124.612C107.055 124.992 107.613 126.087 108.297 127.046C109.182 128.289 109.719 128.61 110.167 128.162C110.615 127.714 110.458 127.081 109.62 125.96C108.317 124.214 107.055 123.551 107.055 124.612ZM119.13 128.237C118.587 130.263 118.684 132.21 119.328 132.21C119.865 132.21 120.253 131.104 120.639 128.468C120.876 126.856 119.554 126.654 119.13 128.237ZM126.461 128.299C125.208 129.634 124.772 131.058 125.628 131.021C126.355 130.991 129.285 128.216 129.285 127.558C129.285 126.497 127.785 126.891 126.461 128.299ZM111.169 130.601C111.195 131.578 113.22 133.965 114.022 133.965C114.926 133.965 114.812 132.988 113.715 131.312C112.722 129.797 111.136 129.354 111.169 130.601ZM121.196 132.979C119.762 134.506 119.542 135.72 120.7 135.72C121.642 135.72 124.02 133.283 124.02 132.319C124.02 131.186 122.561 131.527 121.196 132.979ZM56.5703 137.621C47.5893 152.076 36.9634 173.703 34.9703 181.586C31.682 194.589 37.6367 204.001 54.3911 212.285C67.2289 218.634 73.3393 220.102 80.5775 218.578C91.4228 216.293 100.433 209.287 111.527 194.513C119.061 184.48 124.481 175.598 132.032 160.911L136.375 152.465L125.956 150.226C111.842 147.195 92.7911 142.418 75.1721 137.493C67.1283 135.244 60.2452 133.399 59.8767 133.392C59.5075 133.385 58.0199 135.288 56.5703 137.621ZM38.7283 141.826C32.2927 148.913 30.5237 151.515 32.1424 151.515C32.7806 151.515 35.357 148.788 42.0465 141.031C46.3661 136.022 47.6145 133.965 46.3333 133.965C46.0771 133.965 42.6549 137.503 38.7283 141.826ZM117.585 134.882C117.585 135.533 117.245 135.691 116.415 135.428C115.045 134.993 114.872 136.058 116.059 137.621C117.491 139.508 118.353 138.998 119.025 135.866C119.35 134.352 119.245 133.965 118.508 133.965C118.001 133.965 117.585 134.377 117.585 134.882Z" fill="#F4A900"/>
</svg>
