<svg width="30" height="30" viewBox="0 0 30 30" fill="none" xmlns="http://www.w3.org/2000/svg">
<g clip-path="url(#clip0_474_4113)">
<mask id="mask0_474_4113" style="mask-type:luminance" maskUnits="userSpaceOnUse" x="0" y="0" width="30" height="30">
<path d="M29.8515 0H0.148499V30H29.8515V0Z" fill="white"/>
</mask>
<g mask="url(#mask0_474_4113)">
<path d="M0.148499 14.4C0.148499 7.61178 0.148499 4.21767 2.23645 2.10883C4.32441 0 7.68491 0 14.4059 0H15.594C22.3151 0 25.6756 0 27.7635 2.10883C29.8515 4.21767 29.8515 7.61178 29.8515 14.4V15.6C29.8515 22.3882 29.8515 25.7823 27.7635 27.8912C25.6756 30 22.3151 30 15.594 30H14.4059C7.68491 30 4.32441 30 2.23645 27.8912C0.148499 25.7823 0.148499 22.3882 0.148499 15.6V14.4Z" fill="#0077FF"/>
<path d="M15.953 21.6125C9.18321 21.6125 5.32185 16.925 5.16095 9.125H8.55205C8.66343 14.85 11.1634 17.275 13.1436 17.775V9.125H16.3368V14.0625C18.2922 13.85 20.3464 11.6 21.0395 9.125H24.2326C23.7004 12.175 21.4727 14.425 19.8886 15.35C21.4727 16.1 24.01 18.0625 24.9753 21.6125H21.4604C20.7054 19.2375 18.8244 17.4 16.3368 17.15V21.6125H15.953Z" fill="white"/>
</g>
</g>
<defs>
<clipPath id="clip0_474_4113">
<rect width="30" height="30" fill="white"/>
</clipPath>
</defs>
</svg>
